<?xml version="1.0" standalone="no"?>
<!DOCTYPE svg PUBLIC "-//W3C//DTD SVG 1.1//EN" "http://www.w3.org/Graphics/SVG/1.1/DTD/svg11.dtd" >
<svg xmlns="http://www.w3.org/2000/svg">
<metadata>Generated by IcoMoon</metadata>
<defs>
<font id="BCH_iconos" horiz-adv-x="1024">
<font-face units-per-em="1024" ascent="960" descent="-64" />
<missing-glyph horiz-adv-x="1024" />
<glyph unicode="&#x20;" horiz-adv-x="512" d="" />
<glyph unicode="&#xe900;" glyph-name="cuota_libre_pago" d="M516.267 64c-213.333 0-384 170.667-384 384s170.667 384 384 384c59.733 0 115.2-12.8 166.4-38.4l64 64c-68.267 38.4-145.067 59.733-226.133 59.733-260.267 0-469.333-209.067-469.333-469.333s209.067-469.333 469.333-469.333c81.067 0 157.867 21.333 230.4 59.733l-68.267 64c-51.2-25.6-106.667-38.4-166.4-38.4zM810.667 448l128 128c17.067 17.067 17.067 42.667 0 59.733s-42.667 17.067-59.733 0l-128-128-128 128c-17.067 17.067-42.667 17.067-59.733 0s-17.067-42.667 0-59.733l128-128-128-128c-17.067-17.067-17.067-42.667 0-59.733 8.533-8.533 21.333-12.8 29.867-12.8 12.8 0 21.333 4.267 29.867 12.8l128 128 128-128c8.533-8.533 17.067-12.8 29.867-12.8s21.333 4.267 29.867 12.8c17.067 17.067 17.067 42.667 0 59.733l-128 128z" />
<glyph unicode="&#xe901;" glyph-name="pausa" d="M341.333 42.667c-34.133 0-64 29.867-64 64v682.667c0 34.133 29.867 64 64 64s64-29.867 64-64v-682.667c0-38.4-29.867-64-64-64zM682.667 42.667c-34.133 0-64 29.867-64 64v682.667c0 34.133 29.867 64 64 64s64-29.867 64-64v-682.667c0-38.4-29.867-64-64-64z" />
<glyph unicode="&#xe902;" glyph-name="audio2" d="M494.933 793.6l-192-170.667v-4.267h-145.067c-46.933 0-81.067-34.133-81.067-81.067v-179.2c0-46.933 38.4-81.067 81.067-81.067h149.333l187.733-170.667c29.867-17.067 64 4.267 64 34.133v614.4c0 34.133-34.133 55.467-64 38.4zM627.2 341.333v-42.667c81.067 0 149.333 68.267 149.333 149.333s-68.267 149.333-149.333 149.333v-42.667c59.733 0 106.667-46.933 106.667-106.667s-46.933-106.667-106.667-106.667zM866.133 448c0 140.8-102.4 251.733-238.933 273.067v-42.667c110.933-17.067 196.267-115.2 196.267-230.4s-85.333-209.067-196.267-230.4v-42.667c136.533 21.333 238.933 132.267 238.933 273.067zM627.2 810.667v-42.667c157.867-21.333 277.333-153.6 277.333-315.733s-119.467-294.4-277.333-315.733v-42.667c179.2 21.333 320 174.933 320 362.667 0 179.2-136.533 332.8-320 354.133z" />
<glyph unicode="&#xe903;" glyph-name="audio" d="M849.067 217.6c0 0 0 0 0 0-25.6 0-42.667-21.333-42.667-42.667 0-68.267-29.867-93.867-55.467-102.4-8.533-4.267-64-21.333-102.4 12.8-21.333 17.067-29.867 55.467-38.4 85.333-4.267 17.067-8.533 34.133-17.067 51.2-25.6 55.467-55.467 85.333-110.933 128l-12.8 8.533c-12.8 8.533-21.333 17.067-34.133 29.867-72.533 64-110.933 145.067-110.933 230.4 0 106.667 72.533 187.733 187.733 213.333 110.933 21.333 243.2-21.333 268.8-140.8 4.267-25.6 8.533-59.733 4.267-98.133 0-25.6 17.067-42.667 38.4-46.933 21.333 0 42.667 17.067 46.933 38.4 4.267 46.933 0 89.6-8.533 123.733-42.667 170.667-221.867 230.4-371.2 200.533-145.067-25.6-247.467-145.067-247.467-294.4 0-110.933 46.933-213.333 140.8-294.4 12.8-12.8 25.6-25.6 42.667-34.133l12.8-8.533c51.2-38.4 68.267-59.733 85.333-98.133 4.267-4.267 4.267-21.333 8.533-34.133 8.533-38.4 25.6-93.867 64-128 34.133-29.867 76.8-38.4 110.933-38.4s59.733 8.533 72.533 12.8c72.533 25.6 110.933 89.6 110.933 183.467 0 21.333-17.067 42.667-42.667 42.667zM264.533 849.067c12.8 17.067 12.8 42.667-8.533 59.733-17.067 12.8-42.667 12.8-59.733-4.267-149.333-179.2-140.8-443.733 21.333-614.4 8.533-8.533 21.333-12.8 29.867-12.8s21.333 4.267 29.867 12.8c17.067 17.067 17.067 42.667 0 59.733-128 140.8-136.533 354.133-12.8 499.2zM430.933 605.867c0-72.533 59.733-136.533 136.533-136.533s136.533 59.733 136.533 136.533c0 72.533-59.733 136.533-136.533 136.533s-136.533-59.733-136.533-136.533z" />
<glyph unicode="&#xe904;" glyph-name="play" d="M861.867 507.733l-541.867 311.467c-42.667 25.6-89.6-4.267-89.6-51.2v-627.2c0-46.933 51.2-76.8 89.6-51.2l546.133 315.733c38.4 17.067 38.4 76.8-4.267 102.4z" />
<glyph unicode="&#xe905;" glyph-name="tarjetaDebito" d="M896 793.6h-763.733c-51.2 0-89.6-42.667-89.6-93.867v-499.2c0-51.2 38.4-93.867 89.6-93.867h763.733c51.2 0 93.867 42.667 93.867 93.867v499.2c0 51.2-42.667 93.867-93.867 93.867zM904.533 200.533c0-4.267-4.267-8.533-8.533-8.533h-763.733c-4.267 0-4.267 4.267-4.267 8.533v499.2c0 4.267 0 8.533 4.267 8.533h763.733c4.267 0 8.533-4.267 8.533-8.533v-499.2zM469.333 448h-256c-25.6 0-42.667-17.067-42.667-42.667s17.067-42.667 42.667-42.667h256c25.6 0 42.667 17.067 42.667 42.667s-17.067 42.667-42.667 42.667zM298.667 320h-85.333c-25.6 0-42.667-17.067-42.667-42.667s17.067-42.667 42.667-42.667h85.333c25.6 0 42.667 17.067 42.667 42.667s-17.067 42.667-42.667 42.667z" />
<glyph unicode="&#xe906;" glyph-name="PAC" d="M512 913.067c-260.267 0-469.333-209.067-469.333-465.067 0-260.267 209.067-469.333 469.333-469.333s469.333 209.067 469.333 469.333c0 256-213.333 465.067-469.333 465.067zM512 59.733c-213.333 0-384 170.667-384 384s170.667 384 384 384 384-170.667 384-384-170.667-384-384-384zM405.333 541.867c0 46.933-38.4 85.333-85.333 85.333h-59.733c-12.8 0-25.6-8.533-25.6-25.6v-294.4c0-12.8 12.8-25.6 25.6-25.6s25.6 12.8 25.6 25.6v119.467h38.4c46.933 0 85.333 38.4 85.333 85.333v29.867zM358.4 512c0-21.333-17.067-38.4-38.4-38.4h-34.133v106.667h38.4c21.333 0 38.4-17.067 38.4-38.4v-29.867zM524.8 610.133c-4.267 12.8-12.8 17.067-25.6 17.067s-21.333-8.533-25.6-17.067l-81.067-298.667c-4.267-12.8 4.267-25.6 17.067-29.867s25.6 4.267 29.867 17.067c0 4.267 4.267 8.533 4.267 12.8 4.267 8.533 4.267 21.333 12.8 38.4h85.333c4.267-17.067 8.533-29.867 12.8-38.4 0-4.267 4.267-12.8 4.267-12.8 4.267-12.8 17.067-21.333 29.867-17.067s21.333 17.067 17.067 29.867l-81.067 298.667zM473.6 405.333c8.533 34.133 21.333 76.8 29.867 106.667 8.533-34.133 21.333-72.533 29.867-106.667h-59.733zM785.067 358.4c-12.8 8.533-25.6 4.267-34.133-8.533s-25.6-21.333-42.667-17.067c-17.067 4.267-25.6 17.067-25.6 34.133v174.933c0 17.067 12.8 29.867 25.6 34.133 17.067 4.267 34.133-4.267 42.667-17.067s21.333-17.067 34.133-8.533c12.8 8.533 17.067 21.333 8.533 34.133-21.333 34.133-59.733 51.2-98.133 38.4-38.4-8.533-64-42.667-64-81.067v-174.933c0-38.4 25.6-72.533 64-81.067s76.8 4.267 98.133 38.4c8.533 12.8 4.267 29.867-8.533 34.133z" />
<glyph unicode="&#xe907;" glyph-name="saldo_minimo" d="M938.667 64h-810.667v810.667c0 25.6-17.067 42.667-42.667 42.667s-42.667-17.067-42.667-42.667v-853.333c0-25.6 17.067-42.667 42.667-42.667h853.333c25.6 0 42.667 17.067 42.667 42.667s-21.333 42.667-42.667 42.667zM213.333 712.533h21.333c12.8 0 21.333 8.533 21.333 21.333s-8.533 21.333-21.333 21.333h-21.333c-12.8 0-21.333-8.533-21.333-21.333s8.533-21.333 21.333-21.333zM554.667 712.533h38.4c12.8 0 21.333 8.533 21.333 21.333s-8.533 21.333-21.333 21.333h-38.4c-12.8 0-21.333-8.533-21.333-21.333s8.533-21.333 21.333-21.333zM674.133 712.533h38.4c12.8 0 21.333 8.533 21.333 21.333s-8.533 21.333-21.333 21.333h-38.4c-12.8 0-21.333-8.533-21.333-21.333s8.533-21.333 21.333-21.333zM797.867 712.533h38.4c12.8 0 21.333 8.533 21.333 21.333s-8.533 21.333-21.333 21.333h-38.4c-12.8 0-21.333-8.533-21.333-21.333s8.533-21.333 21.333-21.333zM435.2 712.533h38.4c12.8 0 21.333 8.533 21.333 21.333s-8.533 21.333-21.333 21.333h-38.4c-12.8 0-21.333-8.533-21.333-21.333s8.533-21.333 21.333-21.333zM315.733 712.533h38.4c12.8 0 21.333 8.533 21.333 21.333s-8.533 21.333-21.333 21.333h-38.4c-12.8 0-21.333-8.533-21.333-21.333s8.533-21.333 21.333-21.333zM917.333 712.533h21.333c12.8 0 21.333 8.533 21.333 21.333s-8.533 21.333-21.333 21.333h-21.333c-12.8 0-21.333-8.533-21.333-21.333s8.533-21.333 21.333-21.333zM652.8 388.267l81.067-64c12.8-8.533 17.067-21.333 17.067-34.133s-8.533-25.6-17.067-34.133c-8.533-8.533-21.333-8.533-34.133-8.533-12.8 4.267-21.333 8.533-29.867 21.333-8.533 17.067-29.867 21.333-42.667 12.8-17.067-8.533-21.333-29.867-12.8-42.667 12.8-21.333 34.133-38.4 59.733-46.933v-25.6c0-17.067 12.8-29.867 29.867-29.867s29.867 12.8 29.867 29.867v21.333c12.8 4.267 25.6 12.8 38.4 21.333 25.6 21.333 38.4 51.2 38.4 81.067-4.267 29.867-17.067 59.733-46.933 85.333l-81.067 64c-8.533 8.533-12.8 17.067-12.8 29.867s4.267 21.333 12.8 29.867c12.8 8.533 21.333 8.533 34.133 8.533 8.533-4.267 21.333-8.533 25.6-21.333 8.533-17.067 29.867-21.333 42.667-12.8 17.067 8.533 21.333 29.867 12.8 42.667-12.8 25.6-29.867 38.4-55.467 46.933v25.6c0 17.067-12.8 29.867-29.867 29.867s-29.867-12.8-29.867-29.867v-25.6c-12.8-4.267-25.6-12.8-34.133-21.333-21.333-17.067-34.133-46.933-34.133-76.8s12.8-59.733 38.4-76.8zM396.8 153.6c64 0 115.2 51.2 115.2 115.2v230.4c0 64-51.2 115.2-115.2 115.2s-115.2-51.2-115.2-115.2v-230.4c0-64 51.2-115.2 115.2-115.2zM349.867 499.2c0 25.6 21.333 51.2 51.2 51.2 25.6 0 51.2-21.333 51.2-51.2v-230.4c0-25.6-21.333-51.2-51.2-51.2-25.6 0-51.2 21.333-51.2 51.2v230.4z" />
<glyph unicode="&#xe908;" glyph-name="costo_mensual" d="M938.667 789.333h-128v21.333c0 25.6-17.067 42.667-42.667 42.667s-42.667-17.067-42.667-42.667v-21.333h-426.667v21.333c0 25.6-17.067 42.667-42.667 42.667s-42.667-17.067-42.667-42.667v-21.333h-128c-21.333 0-42.667-17.067-42.667-42.667v-640c0-21.333 17.067-42.667 42.667-42.667h853.333c21.333 0 42.667 17.067 42.667 42.667v640c0 21.333-17.067 42.667-42.667 42.667zM896 149.333h-768v554.667h85.333v-21.333c0-25.6 17.067-42.667 42.667-42.667s42.667 17.067 42.667 42.667v21.333h430.933v-21.333c0-25.6 17.067-42.667 42.667-42.667s42.667 17.067 42.667 42.667v21.333h81.067v-554.667zM482.133 486.4c-8.533 8.533-12.8 17.067-12.8 29.867s4.267 21.333 12.8 29.867c12.8 8.533 21.333 8.533 34.133 8.533 8.533 0 21.333-8.533 25.6-21.333 8.533-12.8 29.867-21.333 42.667-12.8 17.067 8.533 21.333 29.867 12.8 42.667-12.8 25.6-29.867 42.667-55.467 46.933v29.867c0 17.067-12.8 29.867-29.867 29.867s-29.867-17.067-29.867-29.867v-25.6c-12.8-8.533-25.6-17.067-34.133-25.6-21.333-12.8-29.867-42.667-29.867-76.8s12.8-59.733 38.4-76.8l81.067-64c12.8-8.533 17.067-21.333 17.067-34.133s-8.533-25.6-17.067-29.867c-8.533-8.533-21.333-8.533-34.133-8.533-12.8 4.267-21.333 8.533-29.867 21.333-8.533 17.067-29.867 21.333-42.667 12.8-17.067-8.533-21.333-29.867-12.8-42.667 12.8-21.333 34.133-38.4 59.733-46.933v-29.867c0-17.067 12.8-29.867 29.867-29.867s29.867 12.8 29.867 29.867v21.333c12.8 4.267 25.6 12.8 38.4 21.333 25.6 21.333 38.4 51.2 38.4 81.067-4.267 29.867-17.067 59.733-46.933 85.333l-85.333 64z" />
<glyph unicode="&#xe909;" glyph-name="ticket" d="M311.467 149.333l-247.467 234.667c-25.6 25.6-29.867 68.267-4.267 98.133 0 0 4.267 4.267 4.267 4.267 12.8 12.8 34.133 21.333 51.2 21.333 21.333 0 38.4-8.533 51.2-21.333l196.267-183.467 490.667 460.8c29.867 25.6 76.8 25.6 106.667 0 25.6-25.6 29.867-68.267 4.267-98.133 0 0-4.267-4.267-4.267-4.267l-541.867-512c-29.867-29.867-76.8-29.867-106.667 0v0z" />
<glyph unicode="&#xe90a;" glyph-name="pdf" d="M546.133 917.333h-332.8c-46.933 0-85.333-38.4-85.333-85.333v-768c0-46.933 38.4-85.333 85.333-85.333h554.667c46.933 0 85.333 38.4 85.333 85.333v546.133l-307.2 307.2zM567.467 776.533l149.333-149.333h-128c-8.533 0-21.333 8.533-21.333 21.333v128zM213.333 64v768h298.667v-183.467c0-42.667 29.867-72.533 72.533-72.533h183.467v-512h-554.667zM256 477.867h81.067c17.067 0 34.133-4.267 42.667-12.8s17.067-21.333 17.067-38.4c0-17.067-4.267-29.867-17.067-38.4-8.533-8.533-25.6-12.8-42.667-12.8h-38.4v-59.733h-42.667v162.133zM332.8 405.333c8.533 0 12.8 0 17.067 4.267s4.267 8.533 4.267 17.067c0 8.533 0 12.8-4.267 17.067s-8.533 4.267-17.067 4.267h-34.133v-42.667h34.133zM418.133 477.867h68.267c17.067 0 34.133-4.267 46.933-8.533 12.8-8.533 25.6-17.067 29.867-29.867 8.533-12.8 12.8-29.867 12.8-46.933s-4.267-34.133-12.8-46.933c-8.533-12.8-17.067-21.333-29.867-29.867s-29.867-8.533-46.933-8.533h-68.267v170.667zM486.4 345.6c17.067 0 29.867 4.267 38.4 12.8s12.8 21.333 12.8 38.4c0 17.067-4.267 29.867-12.8 38.4s-21.333 12.8-38.4 12.8h-21.333v-98.133h21.333zM605.867 311.467v170.667h119.467v-34.133h-76.8v-29.867h68.267v-34.133h-68.267v-68.267h-42.667z" />
<glyph unicode="&#xe90b;" glyph-name="pagina" d="M546.133 917.333h-332.8c-46.933 0-85.333-38.4-85.333-85.333v-768c0-46.933 38.4-85.333 85.333-85.333h554.667c46.933 0 85.333 38.4 85.333 85.333v546.133l-307.2 307.2zM567.467 776.533l149.333-149.333h-128c-8.533 0-21.333 8.533-21.333 21.333v128zM213.333 64v768h298.667v-183.467c0-42.667 29.867-72.533 72.533-72.533h183.467v-512h-554.667z" />
<glyph unicode="&#xe90c;" glyph-name="inversion_bloqueo" d="M896 704h-128v51.2c0 68.267-51.2 119.467-119.467 119.467h-273.067c-68.267-8.533-119.467-55.467-119.467-119.467v-51.2h-128c-51.2 0-85.333-42.667-85.333-85.333v-512c0-46.933 38.4-85.333 85.333-85.333h768c46.933 0 85.333 38.4 85.333 85.333v512c0 42.667-34.133 85.333-85.333 85.333zM341.333 755.2c0 21.333 21.333 34.133 34.133 34.133h268.8c29.867 0 38.4-21.333 38.4-34.133v-51.2h-341.333v51.2zM896 106.667h-768v512h768v-512zM349.867 149.333h320c21.333 0 38.4 17.067 38.4 38.4v209.067c0 21.333-17.067 38.4-38.4 38.4h-25.6c0 76.8-59.733 136.533-136.533 136.533s-136.533-59.733-136.533-136.533h-21.333c-21.333 0-38.4-17.067-38.4-38.4v-209.067c4.267-21.333 17.067-38.4 38.4-38.4zM512 533.333c55.467 0 98.133-42.667 98.133-98.133h-200.533c0 55.467 46.933 98.133 102.4 98.133zM354.133 375.467c0 8.533 8.533 17.067 17.067 17.067h277.333c8.533 0 17.067-8.533 17.067-17.067v-166.4c0-8.533-4.267-17.067-17.067-17.067h-277.333c-8.533 0-17.067 8.533-17.067 17.067v166.4z" />
<glyph unicode="&#xe90d;" glyph-name="cheques" d="M42.667 789.333v-597.333h938.667v597.333h-938.667zM896 277.333h-768v426.667h768v-426.667zM179.2 640h426.667v-42.667h-426.667v42.667zM179.2 512h597.333v-42.667h-597.333v42.667zM691.2 640h166.4v-42.667h-166.4v42.667zM802.133 401.067c-34.133 8.533-64-12.8-89.6-29.867-4.267 0-4.267-4.267-8.533-4.267-12.8 38.4-34.133 59.733-55.467 64-42.667 8.533-76.8-38.4-98.133-68.267-4.267-8.533-8.533-12.8-12.8-17.067-8.533-8.533-8.533-21.333 0-29.867 4.267-4.267 8.533-4.267 17.067-4.267 4.267 0 12.8 0 17.067 8.533 4.267 4.267 8.533 12.8 17.067 21.333 12.8 17.067 42.667 55.467 55.467 55.467 0 0 12.8-4.267 29.867-55.467 4.267-8.533 8.533-12.8 17.067-12.8 17.067-4.267 29.867 4.267 46.933 17.067s38.4 25.6 51.2 21.333c8.533-4.267 17.067-17.067 21.333-25.6 4.267-12.8 17.067-17.067 29.867-12.8s17.067 17.067 12.8 29.867c-12.8 17.067-29.867 34.133-51.2 42.667z" />
<glyph unicode="&#xe90e;" glyph-name="claves" d="M251.733 469.333v-46.933l-68.267 4.267 38.4-59.733-42.667-25.6-34.133 64-34.133-64-38.4 21.333 38.4 59.733-68.267 4.267v46.933l72.533-4.267-38.4 59.733 38.4 25.6 34.133-64 34.133 64 42.667-25.6-38.4-59.733h64zM494.933 469.333v-46.933l-68.267 4.267 38.4-59.733-42.667-25.6-34.133 64-34.133-64-38.4 21.333 38.4 59.733-72.533-4.267v46.933l72.533-4.267-38.4 59.733 38.4 25.6 34.133-64 34.133 64 42.667-25.6-38.4-51.2h68.267zM738.133 469.333v-46.933l-68.267 4.267 38.4-59.733-42.667-25.6-34.133 64-34.133-64-38.4 21.333 38.4 59.733-72.533-4.267v46.933l72.533-4.267-38.4 59.733 38.4 25.6 34.133-64 34.133 64 42.667-25.6-38.4-59.733 68.267 8.533zM981.333 469.333v-46.933l-68.267 4.267 38.4-59.733-42.667-25.6-34.133 64-34.133-64-38.4 21.333 38.4 59.733-72.533-4.267v46.933l72.533-4.267-38.4 59.733 38.4 25.6 34.133-64 34.133 64 42.667-25.6-38.4-59.733 68.267 8.533z" />
<glyph unicode="&#xe90f;" glyph-name="tarjeta_Bloqueo3" d="M891.733 793.6h-763.733c-51.2 0-89.6-42.667-89.6-93.867v-499.2c0-51.2 38.4-93.867 89.6-93.867h763.733c51.2 0 93.867 42.667 93.867 93.867v499.2c0 51.2-42.667 93.867-93.867 93.867zM290.133 610.133l-145.067 98.133h738.133l-145.067-98.133h-448zM605.867 524.8l-93.867-59.733-93.867 59.733h187.733zM213.333 610.133h-89.6v59.733l89.6-59.733zM123.733 524.8h217.6l132.267-85.333-349.867-230.4v315.733zM512 413.867l337.067-221.867h-674.133l337.067 221.867zM550.4 439.467l132.267 85.333h217.6v-315.733l-349.867 230.4zM900.267 610.133h-89.6l89.6 59.733v-59.733z" />
<glyph unicode="&#xe910;" glyph-name="tarjeta_bloqueo2" d="M682.667 524.8h-25.6c0 81.067-64 149.333-149.333 149.333s-149.333-64-149.333-149.333v0h-17.067c-21.333 0-38.4-17.067-38.4-38.4v-226.133c0-21.333 17.067-38.4 38.4-38.4h341.333c21.333 0 38.4 17.067 38.4 38.4v226.133c4.267 21.333-12.8 38.4-38.4 38.4zM405.333 524.8c0 59.733 46.933 106.667 106.667 106.667s106.667-46.933 106.667-106.667v0h-213.333zM678.4 285.867c0-8.533-4.267-17.067-17.067-17.067h-298.667c-8.533 0-17.067 8.533-17.067 17.067v179.2c0 8.533 8.533 17.067 17.067 17.067h298.667c8.533 0 17.067-8.533 17.067-17.067v-179.2zM891.733 789.333h-763.733c-51.2 0-89.6-42.667-89.6-89.6v-499.2c0-51.2 38.4-93.867 89.6-93.867h763.733c51.2 0 93.867 42.667 93.867 93.867v499.2c0 46.933-42.667 89.6-93.867 89.6zM900.267 618.667v-418.133c0-4.267-4.267-8.533-8.533-8.533h-763.733c-4.267 0-4.267 4.267-4.267 8.533v499.2c0 4.267 0 4.267 4.267 4.267h763.733c4.267 0 8.533 0 8.533-4.267v-81.067z" />
<glyph unicode="&#xe911;" glyph-name="BloqueoCuentaAhorro" d="M896 571.733c-21.333 42.667-51.2 81.067-89.6 115.2 0 4.267 4.267 12.8 8.533 21.333 4.267 4.267 4.267 8.533 4.267 12.8 12.8 21.333 12.8 46.933 4.267 72.533-8.533 21.333-25.6 38.4-46.933 46.933-8.533 0-21.333 4.267-38.4 4.267-4.267 0-8.533 0-8.533 0-55.467-8.533-98.133-25.6-136.533-55.467-34.133 8.533-72.533 12.8-106.667 12.8-25.6 0-51.2 0-76.8-4.267-115.2-21.333-204.8-68.267-273.067-145.067-76.8-85.333-106.667-187.733-85.333-294.4 12.8-76.8 51.2-145.067 106.667-200.533 12.8-17.067 21.333-34.133 25.6-51.2 0-8.533 4.267-17.067 4.267-25.6 0-4.267 0-12.8 4.267-17.067 8.533-42.667 42.667-72.533 85.333-72.533h128c29.867 0 59.733 17.067 72.533 42.667 17.067-25.6 42.667-42.667 72.533-42.667h132.267c46.933 0 85.333 38.4 85.333 85.333v8.533c0 4.267 0 8.533 0 12.8s0 8.533 0 8.533c0 8.533 4.267 21.333 25.6 38.4 42.667 38.4 76.8 81.067 102.4 128 51.2 8.533 85.333 51.2 89.6 102.4 0 29.867 0 64 0 93.867 0 51.2-38.4 93.867-89.6 102.4zM896 371.2c0-8.533-8.533-17.067-17.067-17.067-4.267 0-8.533 0-12.8 0h-4.267c-4.267 0-4.267 0-8.533 0-12.8 0-21.333-4.267-25.6-17.067-17.067-51.2-51.2-93.867-89.6-128-29.867-25.6-46.933-55.467-51.2-89.6 0-8.533 0-21.333 0-34.133 0-4.267 0-8.533 0-8.533-42.667 0-85.333 0-132.267 0 0 8.533 0 17.067 0 25.6 0 17.067-8.533 25.6-25.6 25.6 0 0 0 0-4.267 0-8.533 0-17.067 0-29.867 0-21.333 0-42.667 0-59.733 0 0 0 0 0-4.267 0-17.067 0-25.6-8.533-25.6-25.6 0-8.533 0-17.067 0-25.6-42.667 0-85.333 0-128 0-4.267 17.067-4.267 34.133-8.533 51.2-8.533 34.133-25.6 59.733-51.2 85.333-42.667 46.933-72.533 98.133-85.333 157.867-17.067 85.333 8.533 157.867 64 221.867 59.733 64 136.533 102.4 221.867 115.2 21.333 4.267 42.667 4.267 64 4.267 38.4 0 81.067-4.267 119.467-17.067 4.267 0 4.267 0 8.533 0 8.533 0 12.8 4.267 21.333 12.8 25.6 29.867 64 46.933 106.667 51.2 4.267-4.267 0-4.267 0-8.533-21.333-34.133-25.6-68.267-17.067-106.667 0-4.267 4.267-8.533 8.533-12.8 46.933-34.133 81.067-81.067 98.133-132.267 4.267-8.533 12.8-17.067 21.333-17.067 4.267 0 4.267 0 8.533 0s8.533 0 12.8 0c4.267 0 4.267 0 8.533 0 12.8 0 17.067-8.533 17.067-17.067 0-29.867 0-59.733 0-93.867zM618.667 486.4h-21.333c0 64-51.2 119.467-119.467 119.467s-119.467-51.2-119.467-119.467h-12.8c-17.067 0-29.867-12.8-29.867-29.867v-179.2c0-17.067 12.8-29.867 29.867-29.867h273.067c17.067 0 29.867 12.8 29.867 29.867v179.2c0 17.067-12.8 29.867-29.867 29.867zM482.133 571.733c46.933 0 85.333-38.4 85.333-85.333h-170.667c0 46.933 38.4 85.333 85.333 85.333zM614.4 294.4c0-8.533-4.267-17.067-12.8-17.067h-238.933c-8.533 0-17.067 8.533-17.067 17.067v140.8c0 8.533 8.533 17.067 17.067 17.067h234.667c8.533 0 17.067-8.533 17.067-17.067v-140.8z" />
<glyph unicode="&#xe912;" glyph-name="leasing2" d="M396.8 251.733h170.667v-42.667h-170.667v42.667zM396.8 170.667h93.867v-42.667h-93.867v42.667zM281.6 349.867c8.533 0 12.8-4.267 17.067-12.8s17.067-12.8 25.6-8.533 12.8 17.067 4.267 25.6c-8.533 12.8-21.333 25.6-38.4 29.867v25.6c0 8.533-8.533 21.333-21.333 21.333s-21.333-8.533-21.333-21.333v-17.067c-8.533 0-17.067-4.267-21.333-12.8-12.8-12.8-21.333-29.867-21.333-51.2 0-17.067 8.533-38.4 25.6-51.2l51.2-42.667c4.267-4.267 8.533-12.8 8.533-21.333s-4.267-17.067-8.533-21.333c-4.267-4.267-12.8-8.533-21.333-4.267s-12.8 4.267-17.067 12.8c-4.267 8.533-17.067 12.8-25.6 8.533s-12.8-17.067-8.533-25.6c8.533-12.8 21.333-25.6 38.4-29.867v-17.067c0-8.533 8.533-21.333 21.333-21.333s21.333 8.533 21.333 21.333v17.067c8.533 0 17.067 4.267 21.333 12.8 12.8 12.8 21.333 29.867 21.333 51.2s-8.533 38.4-25.6 51.2l-46.933 38.4c-4.267 4.267-8.533 12.8-8.533 17.067 0 8.533 0 12.8 8.533 21.333 4.267 4.267 12.8 8.533 21.333 4.267zM742.4 887.467h-115.2v25.6c0 17.067-21.333 25.6-34.133 12.8l-72.533-72.533c-8.533-4.267-8.533-17.067 0-25.6l72.533-72.533c12.8-12.8 34.133-4.267 34.133 12.8v34.133h115.2c85.333 0 153.6-68.267 153.6-153.6s-68.267-153.6-153.6-153.6c-17.067 0-29.867 4.267-42.667 8.533l-260.267 256h-281.6c-38.4 0-72.533-34.133-72.533-72.533v-652.8c0-38.4 34.133-72.533 72.533-72.533h473.6c38.4 0 72.533 34.133 72.533 72.533v379.733c12.8 0 25.6-4.267 38.4-4.267 128 0 238.933 110.933 238.933 238.933s-110.933 238.933-238.933 238.933zM618.667 460.8v0l-153.6-4.267c-17.067 0-29.867 4.267-29.867 34.133v153.6l183.467-183.467zM170.667 42.667v631.467h179.2v-183.467c0-72.533 46.933-119.467 115.2-119.467h153.6v-328.533h-448zM742.4 772.267c-12.8 0-21.333-8.533-21.333-21.333v-106.667c0-12.8 8.533-21.333 21.333-21.333h64c12.8 0 21.333 8.533 21.333 21.333s-8.533 21.333-21.333 21.333h-42.667v85.333c0 12.8-8.533 21.333-21.333 21.333z" />
<glyph unicode="&#xe913;" glyph-name="instagram" d="M981.333 448c0-64 0-132.267 0-196.267 4.267-115.2-68.267-204.8-162.133-247.467-38.4-17.067-76.8-25.6-119.467-25.6-128 0-256 0-379.733 0-93.867 0-174.933 42.667-230.4 119.467-29.867 42.667-42.667 89.6-42.667 140.8 0 136.533 0 268.8 0 405.333 0 110.933 55.467 187.733 149.333 238.933 42.667 21.333 85.333 29.867 132.267 29.867 123.733 0 247.467 0 371.2 0 93.867 0 174.933-38.4 234.667-115.2 34.133-42.667 46.933-93.867 46.933-145.067 0-68.267 0-136.533 0-204.8zM115.2 448c0-68.267 0-136.533 0-209.067 0-29.867 8.533-59.733 21.333-85.333 42.667-68.267 106.667-102.4 183.467-102.4 128 0 251.733 0 379.733 0 29.867 0 59.733 8.533 89.6 21.333 76.8 38.4 119.467 93.867 119.467 183.467 0 132.267 0 268.8 0 401.067 0 38.4-12.8 72.533-34.133 102.4-42.667 59.733-102.4 89.6-174.933 89.6-128 0-251.733 0-379.733 0-25.6 0-51.2-8.533-76.8-17.067-68.267-25.6-132.267-89.6-132.267-187.733 4.267-64 4.267-132.267 4.267-196.267zM512 247.467c-123.733 0-221.867 98.133-221.867 217.6s98.133 217.6 221.867 217.6c119.467 0 221.867-98.133 221.867-217.6s-98.133-217.6-221.867-217.6zM512 320c81.067 0 149.333 68.267 149.333 149.333s-68.267 145.067-149.333 145.067c-81.067 0-149.333-64-149.333-149.333 0-81.067 68.267-145.067 149.333-145.067zM759.467 750.933c25.6 0 46.933-21.333 46.933-46.933s-21.333-46.933-46.933-46.933c-25.6 0-46.933 21.333-46.933 46.933 0 21.333 21.333 46.933 46.933 46.933z" />
<glyph unicode="&#xe914;" glyph-name="youtube" d="M972.8 635.733c0 0-8.533 64-38.4 93.867-34.133 38.4-76.8 38.4-93.867 38.4-132.267 12.8-328.533 12.8-328.533 12.8v0c0 0-196.267 0-328.533-8.533-17.067-4.267-59.733-4.267-93.867-42.667-29.867-25.6-38.4-93.867-38.4-93.867s-8.533-76.8-8.533-153.6v-72.533c0-76.8 8.533-153.6 8.533-153.6s8.533-64 38.4-93.867c34.133-38.4 81.067-38.4 102.4-38.4 76.8-8.533 320-8.533 320-8.533s196.267 0 328.533 8.533c17.067 4.267 59.733 4.267 93.867 38.4 29.867 29.867 38.4 93.867 38.4 93.867s8.533 76.8 8.533 153.6v72.533c0 76.8-8.533 153.6-8.533 153.6zM413.867 324.267v264.533l251.733-132.267-251.733-132.267z" />
<glyph unicode="&#xe915;" glyph-name="facebook" d="M512 913.067c-256 0-465.067-209.067-465.067-465.067s209.067-465.067 465.067-465.067 465.067 209.067 465.067 465.067-209.067 465.067-465.067 465.067zM635.733 610.133c-21.333 0-46.933 0-59.733 0s-25.6-12.8-25.6-21.333c0-8.533 0-59.733 0-59.733s72.533 0 85.333 0c-4.267-46.933-8.533-89.6-8.533-89.6h-72.533v-247.467h-110.933v247.467h-55.467v89.6h55.467c0 0 0 59.733 0 72.533-4.267 12.8-4.267 102.4 110.933 102.4 17.067 0 51.2 0 81.067 0 0-38.4 0-81.067 0-93.867z" />
<glyph unicode="&#xe916;" glyph-name="twitter" d="M512 913.067c-260.267 0-469.333-209.067-469.333-465.067s209.067-469.333 469.333-469.333 465.067 209.067 465.067 469.333-209.067 465.067-465.067 465.067zM746.667 537.6c0-4.267 0-8.533 0-12.8 0-149.333-115.2-320-320-320-64 0-123.733 17.067-170.667 51.2 8.533 0 17.067 0 25.6 0 51.2 0 102.4 17.067 140.8 46.933-51.2 0-89.6 34.133-106.667 76.8 8.533 0 12.8 0 21.333 0s21.333 0 29.867 4.267c-51.2 8.533-89.6 55.467-89.6 110.933 0 0 0 0 0 0 17.067-8.533 34.133-12.8 51.2-12.8-29.867 12.8-51.2 46.933-51.2 89.6 0 21.333 4.267 38.4 17.067 55.467 55.467-68.267 136.533-110.933 230.4-119.467 0 8.533-4.267 17.067-4.267 25.6 0 64 51.2 110.933 110.933 110.933 34.133 0 59.733-12.8 81.067-34.133 25.6 4.267 51.2 12.8 72.533 25.6-8.533-25.6-25.6-46.933-51.2-64 21.333 4.267 42.667 8.533 64 17.067-8.533-17.067-29.867-38.4-51.2-51.2z" />
<glyph unicode="&#xe917;" glyph-name="B" d="M349.867 917.333h46.933c34.133 0 149.333-34.133 149.333-34.133h21.333c8.533 0 21.333 4.267 25.6 8.533 4.267 0 4.267 0 8.533-4.267l-196.267-140.8c0 0-59.733-29.867-59.733-59.733v-354.133l-196.267-136.533c4.267 17.067 29.867 34.133 29.867 64v349.867c0 25.6 187.733 123.733 187.733 153.6s-110.933 51.2-110.933 51.2c-34.133 0-51.2 0-85.333 0s-72.533-21.333-89.6-21.333c42.667 29.867 153.6 123.733 268.8 123.733zM755.2 908.8c29.867 0 46.933-34.133 102.4-102.4 12.8-17.067 72.533-89.6 72.533-128v-29.867c0-72.533-187.733-145.067-187.733-174.933 0-21.333 98.133-12.8 145.067-42.667 42.667-29.867 59.733-89.6 59.733-119.467v-85.333c0-51.2-72.533-72.533-157.867-136.533-38.4-29.867-166.4-115.2-179.2-115.2 0 0-149.333 81.067-217.6 81.067h-98.133c-38.4 0-140.8-34.133-145.067-34.133 0 0 149.333 145.067 298.667 145.067h102.4c21.333 0 93.867-29.867 110.933-34.133v644.267c0 4.267-8.533 17.067-21.333 17.067-29.867 0-46.933-51.2-46.933-55.467v-375.467c0-17.067-68.267-68.267-102.4-89.6-51.2-29.867-85.333-59.733-119.467-76.8v8.533c0 0 25.6 29.867 25.6 46.933v413.867c0 4.267 42.667 59.733 166.4 132.267 76.8 42.667 149.333 110.933 192 110.933zM695.467 435.2v-311.467c0-17.067 25.6-29.867 42.667-29.867 8.533 0-4.267-4.267 8.533 0v290.133c4.267 25.6-42.667 51.2-51.2 51.2zM695.467 733.867v-226.133c51.2 29.867 81.067 46.933 81.067 85.333 0 55.467-81.067 140.8-81.067 140.8z" />
<glyph unicode="&#xe918;" glyph-name="App" d="M366.933 729.6c0 0 55.467-12.8 55.467-25.6s-93.867-64-93.867-76.8v-179.2c0-12.8-12.8-21.333-12.8-29.867l98.133 68.267v179.2c0 12.8 29.867 29.867 29.867 29.867l102.4 72.533c0 0-4.267 0-4.267 4.267-4.267 0-8.533-4.267-12.8-4.267h-8.533c0 0-59.733 17.067-76.8 17.067h-25.6c-55.467 0-115.2-46.933-136.533-64 8.533 0 25.6 8.533 42.667 12.8 21.333-4.267 25.6-4.267 42.667-4.267zM686.933 537.6c-21.333 12.8-72.533 8.533-72.533 21.333 0 17.067 93.867 51.2 93.867 89.6v12.8c0 17.067-29.867 55.467-38.4 64-25.6 34.133-34.133 51.2-51.2 51.2-21.333 0-59.733-34.133-93.867-55.467-59.733-34.133-85.333-64-85.333-64v-209.067c0-8.533-12.8-25.6-12.8-25.6v-4.267c17.067 8.533 34.133 21.333 59.733 38.4 17.067 8.533 51.2 34.133 51.2 42.667v192c0 0 8.533 25.6 25.6 25.6 4.267 0 8.533-4.267 8.533-8.533v-324.267c-8.533 4.267-46.933 17.067-55.467 17.067h-51.2c-76.8 0-149.333-72.533-149.333-72.533 4.267 0 55.467 17.067 72.533 17.067h46.933c34.133 0 110.933-42.667 110.933-42.667 4.267 0 68.267 42.667 89.6 59.733 42.667 34.133 76.8 42.667 76.8 68.267v42.667c4.267 21.333-4.267 51.2-25.6 64zM593.067 686.933c0 0 38.4-42.667 38.4-72.533 0-21.333-17.067-29.867-38.4-42.667v115.2zM618.667 366.933c-8.533-4.267 0 0-4.267 0-8.533 0-21.333 4.267-21.333 12.8v157.867c4.267 0 25.6-12.8 25.6-25.6v-145.067zM810.667 917.333h-597.333c-93.867 0-170.667-76.8-170.667-170.667v-597.333c0-93.867 76.8-170.667 170.667-170.667h597.333c93.867 0 170.667 76.8 170.667 170.667v597.333c0 93.867-76.8 170.667-170.667 170.667zM938.667 234.667h-853.333v516.267c0 68.267 55.467 128 128 128h597.333c68.267 0 128-55.467 128-128v-516.267z" />
<glyph unicode="&#xe919;" glyph-name="mail2" d="M938.667 785.067h-849.067c-25.6 0-42.667-21.333-42.667-42.667v-554.667c0-25.6 21.333-42.667 42.667-42.667h849.067c25.6 0 42.667 21.333 42.667 42.667v554.667c0 21.333-21.333 42.667-42.667 42.667zM793.6 699.733l-281.6-204.8-277.333 204.8h558.933zM128 230.4v439.467l358.4-260.267c8.533-4.267 17.067-8.533 25.6-8.533s17.067 4.267 25.6 8.533l358.4 260.267v-443.733h-768v4.267z" />
<glyph unicode="&#xe91a;" glyph-name="fondoMutuo" d="M780.8 448h-238.933v64c12.8 8.533 42.667 17.067 85.333 34.133 76.8 29.867 110.933 85.333 119.467 110.933s34.133 183.467-34.133 243.2l-17.067 17.067-12.8-17.067c0 0-17.067-25.6-51.2-34.133-42.667-12.8-110.933-76.8-145.067-204.8-38.4 51.2-115.2 119.467-243.2 89.6l-29.867-4.267 12.8-25.6c0 0 12.8-25.6 17.067-59.733 0-4.267 0-8.533 0-12.8 4.267-51.2 8.533-157.867 221.867-187.733v-12.8h-221.867c-17.067 0-29.867-17.067-29.867-38.4l93.867-396.8c4.267-21.333 12.8-38.4 29.867-38.4h354.133c17.067 0 25.6 17.067 29.867 38.4l93.867 396.8c-4.267 21.333-17.067 38.4-34.133 38.4zM516.267 601.6c21.333 162.133 102.4 217.6 123.733 226.133 25.6 8.533 46.933 21.333 59.733 29.867 29.867-55.467 12.8-162.133 8.533-183.467-4.267-12.8-29.867-59.733-93.867-85.333-68.267-25.6-98.133-42.667-102.4-42.667v0l4.267 55.467zM285.867 652.8c0 4.267 0 8.533 0 12.8 0 17.067-4.267 34.133-8.533 46.933 145.067 17.067 200.533-115.2 200.533-119.467l21.333-55.467v-38.4h-12.8c-192 25.6-196.267 106.667-200.533 153.6zM712.533 362.667l-8.533-42.667h-379.733l-8.533 42.667h396.8zM384 59.733l-42.667 174.933h341.333l-42.667-174.933h-256zM384 631.467c-64 17.067-81.067 55.467-81.067 55.467 8.533-38.4 38.4-68.267 76.8-85.333 29.867-12.8 72.533-46.933 93.867-72.533-4.267 29.867-29.867 85.333-89.6 102.4zM622.933 674.133c12.8 29.867 29.867 68.267 59.733 93.867-34.133-8.533-59.733-34.133-89.6-93.867-29.867-55.467-59.733-76.8-59.733-76.8 17.067 4.267 72.533 38.4 89.6 76.8z" />
<glyph unicode="&#xe91b;" glyph-name="sucursal" d="M942.933 661.333c21.333 0 38.4 17.067 38.4 38.4v140.8c0 21.333-17.067 38.4-38.4 38.4h-861.867c-21.333 0-38.4-17.067-38.4-38.4v-140.8c0-21.333 17.067-38.4 38.4-38.4h8.533v-554.667h-29.867c-8.533 0-17.067-8.533-17.067-17.067v-46.933c0-12.8 8.533-21.333 17.067-21.333h900.267c8.533 0 17.067 8.533 17.067 17.067v46.933c0 8.533-8.533 17.067-17.067 17.067h-21.333l4.267 558.933zM106.667 755.2v29.867c0 17.067 12.8 29.867 29.867 29.867h243.2c17.067 0 29.867-12.8 29.867-29.867v-29.867c0-17.067-12.8-29.867-29.867-29.867h-247.467c-12.8 0-25.6 12.8-25.6 29.867zM405.333 106.667h-128v328.533h128v-328.533zM448 477.867c0-4.267-4.267-12.8-12.8-12.8h-149.333c-4.267 0-12.8 4.267-12.8 12.8v17.067c0 4.267 4.267 12.8 12.8 12.8h149.333c4.267 0 12.8-4.267 12.8-12.8v-17.067zM580.267 106.667h-132.267v328.533h132.267v-328.533zM750.933 106.667h-132.267v328.533h132.267v-328.533zM755.2 477.867c0-4.267-4.267-12.8-12.8-12.8h-46.933c-4.267 0-12.8 4.267-12.8 12.8v17.067c0 4.267 4.267 12.8 12.8 12.8h46.933c4.267 0 12.8-4.267 12.8-12.8v-17.067zM853.333 106.667h-55.467v345.6c0 0 0 0 0 0v64c0 8.533-8.533 17.067-17.067 17.067h-529.067c-8.533 0-17.067-8.533-17.067-17.067v-409.6h-59.733v554.667h678.4v-554.667z" />
<glyph unicode="&#xe91c;" glyph-name="cuentaCorrientePlan" d="M486.4 503.467c-8.533 8.533-12.8 17.067-12.8 25.6 0 12.8 4.267 17.067 12.8 25.6 12.8 8.533 17.067 8.533 29.867 8.533 8.533-4.267 17.067-8.533 21.333-17.067 8.533-17.067 25.6-17.067 38.4-12.8 17.067 8.533 17.067 25.6 12.8 38.4-12.8 21.333-25.6 34.133-46.933 42.667v21.333c0 12.8-12.8 25.6-29.867 25.6s-25.6-12.8-25.6-25.6v-21.333c-12.8-4.267-21.333-12.8-29.867-17.067-17.067-21.333-29.867-46.933-29.867-72.533s12.8-51.2 34.133-68.267l72.533-55.467c12.8-8.533 17.067-17.067 17.067-29.867s-8.533-21.333-17.067-29.867-17.067-8.533-29.867-8.533c-12.8 4.267-17.067 8.533-25.6 17.067-8.533 17.067-25.6 17.067-38.4 12.8-17.067-8.533-17.067-25.6-12.8-38.4 12.8-17.067 29.867-34.133 51.2-42.667v-21.333c0-17.067 12.8-25.6 25.6-25.6 17.067 0 25.6 12.8 25.6 25.6v17.067c12.8 4.267 21.333 12.8 34.133 17.067 21.333 17.067 34.133 46.933 34.133 72.533s-17.067 51.2-42.667 76.8l-68.267 59.733zM896 917.333h-768c-46.933 0-85.333-38.4-85.333-85.333v-768c0-46.933 38.4-85.333 85.333-85.333h768c46.933 0 85.333 38.4 85.333 85.333v768c0 46.933-38.4 85.333-85.333 85.333zM896 64h-768v768h768v-768zM243.2 128h537.6c29.867 0 51.2 25.6 51.2 51.2v537.6c0 29.867-25.6 51.2-51.2 51.2h-537.6c-29.867 0-51.2-21.333-51.2-51.2v-537.6c0-29.867 21.333-51.2 51.2-51.2zM277.333 682.667h469.333v-469.333h-469.333v469.333z" />
<glyph unicode="&#xe91d;" glyph-name="lineaCredito" d="M938.667 64h-810.667v810.667c0 25.6-17.067 42.667-42.667 42.667s-42.667-17.067-42.667-42.667v-853.333c0-25.6 17.067-42.667 42.667-42.667h853.333c25.6 0 42.667 17.067 42.667 42.667s-21.333 42.667-42.667 42.667zM213.333 294.4h21.333c12.8 0 21.333 8.533 21.333 21.333s-8.533 21.333-21.333 21.333h-21.333c-12.8 0-21.333-8.533-21.333-21.333s8.533-21.333 21.333-21.333zM554.667 294.4h38.4c12.8 0 21.333 8.533 21.333 21.333s-8.533 21.333-21.333 21.333h-38.4c-12.8 0-21.333-8.533-21.333-21.333s8.533-21.333 21.333-21.333zM674.133 294.4h38.4c12.8 0 21.333 8.533 21.333 21.333s-8.533 21.333-21.333 21.333h-38.4c-12.8 0-21.333-8.533-21.333-21.333s8.533-21.333 21.333-21.333zM836.267 337.067h-38.4c-12.8 0-21.333-8.533-21.333-21.333s8.533-21.333 21.333-21.333h38.4c12.8 0 21.333 8.533 21.333 21.333s-8.533 21.333-21.333 21.333zM435.2 294.4h38.4c12.8 0 21.333 8.533 21.333 21.333s-8.533 21.333-21.333 21.333h-38.4c-12.8 0-21.333-8.533-21.333-21.333s8.533-21.333 21.333-21.333zM315.733 294.4h38.4c12.8 0 21.333 8.533 21.333 21.333s-8.533 21.333-21.333 21.333h-38.4c-12.8 0-21.333-8.533-21.333-21.333s8.533-21.333 21.333-21.333zM917.333 294.4h21.333c12.8 0 21.333 8.533 21.333 21.333s-8.533 21.333-21.333 21.333h-21.333c-12.8 0-21.333-8.533-21.333-21.333s8.533-21.333 21.333-21.333zM742.4 503.467c-12.8 4.267-21.333 8.533-29.867 21.333-8.533 17.067-29.867 21.333-42.667 12.8-17.067-8.533-21.333-29.867-12.8-42.667 12.8-21.333 34.133-38.4 59.733-46.933v-25.6c0-17.067 12.8-29.867 29.867-29.867s29.867 12.8 29.867 29.867v21.333c12.8 4.267 25.6 12.8 38.4 21.333 25.6 21.333 38.4 51.2 38.4 81.067-4.267 29.867-17.067 59.733-46.933 85.333l-81.067 64c-8.533 8.533-12.8 17.067-12.8 29.867s4.267 21.333 12.8 29.867c12.8 8.533 21.333 8.533 34.133 8.533 8.533-4.267 21.333-8.533 25.6-21.333 8.533-17.067 29.867-21.333 42.667-12.8 17.067 8.533 21.333 29.867 12.8 42.667-12.8 25.6-29.867 38.4-55.467 46.933v25.6c0 17.067-12.8 29.867-29.867 29.867s-29.867-12.8-29.867-29.867v-25.6c-12.8-4.267-25.6-12.8-34.133-21.333-21.333-17.067-34.133-46.933-34.133-76.8s12.8-59.733 38.4-76.8l81.067-64c12.8-8.533 17.067-21.333 17.067-34.133s-8.533-25.6-17.067-34.133c-8.533-8.533-21.333-8.533-34.133-8.533z" />
<glyph unicode="&#xe91e;" glyph-name="ciclista" d="M785.067 486.4c25.6 0 42.667 21.333 42.667 42.667 0 25.6-21.333 42.667-42.667 42.667l-128-4.267-85.333 149.333c-8.533 12.8-17.067 17.067-29.867 21.333-12.8 0-25.6-4.267-34.133-12.8l-174.933-170.667c-21.333-8.533-25.6-21.333-25.6-34.133s4.267-21.333 12.8-29.867l140.8-136.533v-234.667c0-25.6 17.067-42.667 42.667-42.667s42.667 17.067 42.667 42.667v256c0 12.8-4.267 21.333-12.8 29.867l-119.467 115.2 102.4 102.4 72.533-123.733c8.533-12.8 21.333-21.333 38.4-21.333l157.867 8.533zM644.267 699.733c42.667 0 81.067 34.133 81.067 81.067 0 42.667-34.133 81.067-81.067 81.067-42.667 0-81.067-34.133-81.067-81.067 4.267-46.933 38.4-81.067 81.067-81.067zM234.667 358.4c-106.667 0-192-85.333-192-192s85.333-192 192-192 192 85.333 192 192-85.333 192-192 192zM234.667 64c-55.467 0-106.667 46.933-106.667 106.667s46.933 106.667 106.667 106.667 106.667-51.2 106.667-106.667-46.933-106.667-106.667-106.667zM793.6 358.4c-106.667 0-192-85.333-192-192s85.333-192 192-192 192 85.333 192 192-85.333 192-192 192zM793.6 64c-59.733 0-106.667 46.933-106.667 106.667s46.933 106.667 106.667 106.667 106.667-46.933 106.667-106.667-46.933-106.667-106.667-106.667z" />
<glyph unicode="&#xe91f;" glyph-name="caracteristicasGenerico" d="M512 832c213.333 0 384-170.667 384-384s-170.667-384-384-384-384 170.667-384 384 170.667 384 384 384zM512 917.333c-260.267 0-469.333-209.067-469.333-469.333s209.067-469.333 469.333-469.333 469.333 209.067 469.333 469.333-209.067 469.333-469.333 469.333v0zM452.267 277.333c-12.8 0-21.333 4.267-29.867 12.8l-132.267 132.267c-17.067 17.067-17.067 42.667 0 59.733s42.667 17.067 59.733 0l102.4-102.4 226.133 226.133c17.067 17.067 42.667 17.067 59.733 0s17.067-42.667 0-59.733l-256-256c-8.533-8.533-21.333-12.8-29.867-12.8z" />
<glyph unicode="&#xe920;" glyph-name="consultas" d="M512 832c213.333 0 384-170.667 384-384s-170.667-384-384-384-384 170.667-384 384 170.667 384 384 384zM512 917.333c-260.267 0-469.333-209.067-469.333-469.333s209.067-469.333 469.333-469.333 469.333 209.067 469.333 469.333-209.067 469.333-469.333 469.333v0zM448 631.467c-12.8-21.333-38.4-25.6-59.733-17.067-17.067 12.8-21.333 38.4-12.8 59.733 21.333 38.4 55.467 59.733 98.133 72.533 42.667 8.533 85.333 0 119.467-25.6s55.467-64 59.733-106.667c4.267-42.667-12.8-85.333-42.667-115.2l-42.667-51.2c-12.8-12.8-17.067-29.867-17.067-46.933v-72.533c0-25.6-17.067-42.667-42.667-42.667s-42.667 17.067-42.667 42.667v76.8c0 38.4 17.067 76.8 42.667 102.4l46.933 46.933c12.8 12.8 21.333 29.867 17.067 51.2 0 17.067-8.533 34.133-25.6 46.933-17.067 8.533-34.133 12.8-55.467 8.533-17.067-4.267-29.867-12.8-42.667-29.867zM503.467 149.333c-29.867 0-51.2 21.333-51.2 51.2s21.333 51.2 51.2 51.2 51.2-21.333 51.2-51.2-21.333-51.2-51.2-51.2z" />
<glyph unicode="&#xe921;" glyph-name="mail" d="M285.867 59.733c-68.267 38.4-119.467 89.6-153.6 153.6s-55.467 140.8-55.467 226.133c0 93.867 21.333 174.933 59.733 243.2 38.4 64 89.6 119.467 157.867 153.6 68.267 38.4 145.067 55.467 226.133 55.467 89.6 0 166.4-17.067 230.4-51.2s110.933-81.067 145.067-136.533c34.133-55.467 51.2-119.467 51.2-187.733 0-64-8.533-115.2-29.867-157.867-17.067-42.667-42.667-76.8-76.8-98.133s-68.267-29.867-106.667-29.867c-34.133 0-64 8.533-85.333 25.6s-34.133 38.4-38.4 64v0c-38.4-59.733-89.6-89.6-149.333-89.6-46.933 0-85.333 17.067-115.2 51.2s-42.667 76.8-42.667 132.267c0 46.933 8.533 93.867 25.6 132.267s42.667 72.533 76.8 93.867c34.133 25.6 72.533 34.133 110.933 34.133 29.867 0 55.467-8.533 76.8-21.333s38.4-29.867 46.933-51.2v0l12.8 64h93.867l-46.933-256c-4.267-12.8-4.267-29.867-4.267-42.667 0-21.333 4.267-38.4 12.8-46.933s21.333-17.067 42.667-17.067c17.067 0 29.867 8.533 46.933 21.333s29.867 38.4 38.4 68.267 17.067 72.533 17.067 119.467c0 55.467-12.8 106.667-38.4 149.333s-64 81.067-110.933 106.667c-51.2 25.6-110.933 38.4-183.467 38.4-68.267 0-128-12.8-179.2-42.667s-93.867-72.533-123.733-128-46.933-119.467-46.933-196.267c0-72.533 12.8-132.267 42.667-187.733 29.867-51.2 68.267-93.867 119.467-123.733s115.2-42.667 187.733-42.667c51.2 0 98.133 8.533 136.533 21.333s68.267 34.133 85.333 55.467h123.733c-25.6-46.933-72.533-85.333-132.267-115.2s-132.267-42.667-213.333-42.667c-89.6 0-166.4 17.067-234.667 55.467zM554.667 332.8c21.333 17.067 38.4 42.667 51.2 72.533s17.067 59.733 17.067 93.867c0 34.133-8.533 59.733-25.6 76.8s-38.4 25.6-64 25.6c-29.867 0-51.2-8.533-72.533-25.6s-38.4-42.667-46.933-68.267c-8.533-29.867-17.067-59.733-17.067-89.6 0-34.133 8.533-59.733 21.333-81.067s34.133-29.867 59.733-29.867c29.867-4.267 55.467 4.267 76.8 25.6z" />
<glyph unicode="&#xe922;" glyph-name="accidentes" d="M375.467 682.667c55.467 0 102.4 46.933 102.4 102.4s-46.933 102.4-102.4 102.4-102.4-46.933-102.4-102.4 46.933-102.4 102.4-102.4zM951.467 460.8l-179.2 68.267c-12.8 4.267-25.6 4.267-38.4-4.267l-85.333-51.2-59.733 213.333 200.533 145.067c17.067 12.8 21.333 42.667 8.533 59.733s-42.667 21.333-59.733 8.533l-413.867-298.667c-8.533-8.533-12.8-12.8-17.067-21.333l-42.667-110.933-166.4 46.933c-21.333 4.267-46.933-8.533-51.2-29.867s8.533-46.933 29.867-51.2l204.8-55.467c4.267 0 8.533 0 12.8 0 17.067 0 34.133 8.533 38.4 25.6l38.4 89.6 115.2-179.2c4.267-4.267 4.267-4.267 4.267-4.267l4.267-4.267 149.333-89.6 34.133-196.267c4.267-21.333 21.333-34.133 42.667-34.133 4.267 0 4.267 0 8.533 0 21.333 4.267 38.4 25.6 34.133 51.2l-38.4 217.6c-4.267 12.8-8.533 21.333-21.333 29.867l-106.667 55.467 51.2 34.133 115.2 64 162.133-64c21.333-8.533 46.933 4.267 55.467 25.6 4.267 25.6-8.533 51.2-29.867 59.733zM516.267 635.733l55.467-196.267c0 0 0-4.267 0-8.533 0 0-4.267-4.267-4.267-4.267l-25.6-21.333c0 0-4.267 0-8.533 0s-4.267 0-4.267 4.267c0 0-89.6 136.533-89.6 136.533-12.8 12.8-8.533 29.867 4.267 38.4l72.533 51.2zM571.733 64l-157.867 38.4c-21.333 4.267-46.933-8.533-51.2-29.867s8.533-46.933 29.867-51.2l157.867-38.4c4.267 0 8.533 0 8.533 0 17.067 0 38.4 12.8 42.667 34.133 4.267 17.067-8.533 42.667-29.867 46.933zM580.267 183.467c-17.067 17.067-42.667 17.067-59.733 0s-17.067-42.667 0-59.733l25.6-25.6c8.533-8.533 21.333-12.8 29.867-12.8s21.333 4.267 29.867 12.8c17.067 17.067 17.067 42.667 0 59.733l-25.6 25.6z" />
<glyph unicode="&#xe923;" glyph-name="destacado" d="M981.333 554.667l-324.267 46.933-145.067 294.4-145.067-294.4-324.267-46.933 234.667-230.4-55.467-324.267 290.133 153.6 290.133-153.6-55.467 324.267 234.667 230.4zM550.4 230.4l-38.4 21.333-42.667-21.333-136.533-72.533 25.6 153.6 8.533 42.667-34.133 29.867-110.933 106.667 153.6 21.333 42.667 8.533 21.333 38.4 72.533 140.8 68.267-136.533 21.333-38.4 42.667-8.533 153.6-21.333-110.933-106.667-34.133-29.867 8.533-42.667 25.6-153.6-136.533 68.267z" />
<glyph unicode="&#xe924;" glyph-name="ninos2" d="M512 874.667c-234.667 0-426.667-192-426.667-426.667s192-426.667 426.667-426.667 426.667 192 426.667 426.667-192 426.667-426.667 426.667zM221.867 268.8l34.133 4.267 51.2 119.467-76.8 106.667-55.467-8.533c8.533 55.467 25.6 102.4 55.467 145.067l38.4-51.2 132.267 12.8 51.2 119.467-38.4 55.467c34.133 8.533 64 17.067 98.133 17.067 21.333 0 38.4 0 59.733-4.267l-29.867-68.267 76.8-106.667 132.267 12.8 17.067 46.933c29.867-34.133 51.2-72.533 64-110.933l-21.333-4.267-51.2-119.467 72.533-98.133c-8.533-29.867-21.333-55.467-38.4-81.067l-4.267 8.533-132.267-12.8-51.2-119.467 4.267-4.267c-25.6-8.533-55.467-12.8-85.333-12.8l4.267 8.533-76.8 106.667-132.267-12.8-12.8-29.867c-34.133 17.067-59.733 46.933-85.333 81.067zM610.133 307.2l55.467 123.733-81.067 102.4-128-12.8-55.467-119.467 81.067-106.667z" />
<glyph unicode="&#xe925;" glyph-name="ninos" d="M375.467 204.8v264.533c-4.267 46.933-8.533 72.533-42.667 102.4-46.933 46.933-93.867 98.133-145.067 145.067-25.6 25.6-42.667 59.733-8.533 89.6s59.733 8.533 85.333-17.067c29.867-29.867 64-64 93.867-93.867 93.867-93.867 217.6-93.867 307.2 0 34.133 34.133 68.267 68.267 102.4 102.4 25.6 25.6 51.2 34.133 76.8 8.533 29.867-25.6 21.333-55.467-4.267-81.067-55.467-55.467-115.2-110.933-166.4-170.667-12.8-17.067-25.6-46.933-25.6-68.267v-285.867c0-38.4 0-76.8 0-115.2 0-34.133-12.8-64-51.2-64s-51.2 29.867-51.2 64c0 38.4 0 76.8 0 119.467 0 34.133-64 34.133-64 0 0-42.667 0-76.8 0-115.2s-8.533-68.267-51.2-68.267c-42.667 0-51.2 34.133-51.2 72.533-4.267 38.4-4.267 72.533-4.267 110.933zM512 674.133c-68.267 0-123.733 51.2-123.733 123.733s51.2 123.733 119.467 123.733c72.533 0 128-51.2 123.733-123.733 4.267-72.533-51.2-123.733-119.467-123.733z" />
<glyph unicode="&#xe926;" glyph-name="alimentos" d="M861.867 661.333c-46.933 55.467-140.8 85.333-204.8 89.6h-4.267c-42.667 0-85.333-12.8-106.667-21.333 0 0 0 0 0 0-4.267 17.067-8.533 34.133-12.8 46.933 4.267 4.267 17.067 12.8 21.333 17.067 21.333-8.533 38.4-12.8 55.467-12.8v0c59.733 0 89.6 51.2 98.133 81.067l4.267 8.533-8.533 4.267c0 0-38.4 17.067-76.8 17.067-51.2 0-81.067-29.867-89.6-81.067v0c0-4.267-8.533-8.533-12.8-12.8-29.867 68.267-81.067 110.933-85.333 110.933-12.8 8.533-25.6 8.533-34.133 0-4.267-8.533-4.267-25.6 4.267-29.867 0 0 72.533-55.467 85.333-149.333-4.267 0-8.533 0-8.533 0-17.067 4.267-68.267 21.333-115.2 21.333h-4.267c-64-4.267-157.867-34.133-204.8-89.6-34.133-42.667-106.667-128-55.467-307.2 21.333-76.8 46.933-106.667 68.267-136.533 12.8-17.067 21.333-29.867 34.133-55.467 8.533-17.067 12.8-29.867 17.067-42.667 12.8-29.867 21.333-59.733 46.933-81.067 4.267-4.267 59.733-55.467 128-55.467h51.2c25.6 0 55.467 8.533 76.8 25.6 25.6-12.8 59.733-25.6 93.867-25.6 21.333 0 42.667 4.267 64 12.8 85.333 34.133 102.4 64 123.733 123.733 4.267 12.8 8.533 25.6 17.067 42.667 12.8 25.6 21.333 38.4 34.133 55.467 21.333 25.6 42.667 59.733 68.267 136.533 38.4 179.2-34.133 264.533-68.267 307.2zM836.267 379.733c-17.067-64-34.133-85.333-55.467-110.933-12.8-17.067-29.867-38.4-42.667-72.533-8.533-17.067-12.8-34.133-17.067-46.933-12.8-42.667-17.067-51.2-72.533-72.533-12.8-4.267-21.333-8.533-34.133-8.533-29.867 0-55.467 17.067-72.533 25.6-8.533 4.267-17.067 8.533-25.6 8.533-12.8 0-25.6-4.267-34.133-17.067s-21.333-17.067-38.4-17.067h-51.2c-25.6 0-59.733 25.6-68.267 34.133s-12.8 21.333-21.333 46.933c-4.267 12.8-8.533 29.867-17.067 46.933-12.8 34.133-29.867 55.467-42.667 72.533-17.067 25.6-34.133 46.933-55.467 110.933-38.4 132.267 8.533 187.733 38.4 226.133 29.867 34.133 98.133 59.733 145.067 59.733h4.267c21.333 0 55.467-8.533 85.333-17.067 34.133-12.8 72.533-12.8 110.933 0 0 0 0 0 0 0 29.867 8.533 59.733 17.067 76.8 17.067h4.267c42.667 0 115.2-25.6 145.067-59.733 29.867-38.4 76.8-93.867 38.4-226.133zM307.2 546.133c8.533 8.533 8.533 21.333-4.267 29.867-8.533 8.533-21.333 8.533-29.867-4.267-46.933-55.467-42.667-183.467 25.6-251.733 4.267-4.267 8.533-4.267 17.067-4.267s12.8 0 17.067 4.267c8.533 8.533 8.533 21.333 0 29.867-59.733 59.733-55.467 157.867-25.6 196.267z" />
<glyph unicode="&#xe927;" glyph-name="promociones" d="M699.733 588.8c-17.067-55.467-12.8-192 0-230.4 68.267 17.067 106.667 59.733 106.667 119.467s-55.467 110.933-106.667 110.933zM776.533 917.333c-34.133 0-64-17.067-89.6-42.667l-298.667-221.867c-12.8-8.533-25.6-12.8-42.667-12.8h-123.733c-55.467 0-106.667-25.6-140.8-68.267s-46.933-98.133-38.4-153.6c17.067-81.067 89.6-140.8 179.2-145.067 17.067-59.733 55.467-200.533 64-247.467 4.267-34.133 17.067-42.667 21.333-42.667h153.6c8.533 8.533 29.867 25.6 29.867 42.667 0 12.8-8.533 29.867-29.867 42.667-68.267 46.933-59.733 153.6-51.2 204.8h38.4c8.533 0 21.333-4.267 25.6-12.8l209.067-192c25.6-29.867 59.733-46.933 98.133-46.933 132.267 0 204.8 226.133 204.8 448s-76.8 448-209.067 448zM529.067 324.267c-21.333 21.333-55.467 34.133-85.333 34.133h-217.6c-46.933 0-89.6 34.133-98.133 76.8-4.267 29.867 0 59.733 21.333 81.067 17.067 21.333 46.933 34.133 76.8 34.133h123.733c34.133 0 68.267 12.8 93.867 29.867l157.867 123.733c-17.067-72.533-29.867-153.6-29.867-234.667 0-68.267 8.533-140.8 21.333-204.8l-64 59.733zM776.533 106.667c-46.933 0-119.467 145.067-119.467 362.667s72.533 362.667 119.467 362.667 119.467-145.067 119.467-362.667c0-217.6-72.533-362.667-119.467-362.667z" />
<glyph unicode="&#xe928;" glyph-name="todos" d="M622.933 576h-221.867c-8.533 0-17.067-8.533-17.067-17.067v-217.6c0-12.8 8.533-21.333 17.067-21.333h217.6c8.533 0 17.067 8.533 17.067 17.067v221.867c4.267 8.533-4.267 17.067-12.8 17.067zM960 576h-217.6c-8.533 0-17.067-8.533-17.067-17.067v-217.6c0-8.533 8.533-17.067 17.067-17.067h217.6c8.533 0 17.067 8.533 17.067 17.067v217.6c4.267 8.533-4.267 17.067-17.067 17.067zM277.333 576h-217.6c-8.533 0-17.067-8.533-17.067-17.067v-217.6c0-12.8 8.533-21.333 17.067-21.333h217.6c12.8 0 21.333 8.533 21.333 17.067v221.867c0 8.533-8.533 17.067-21.333 17.067zM622.933 234.667h-221.867c-8.533 0-17.067-8.533-17.067-17.067v-217.6c0-12.8 8.533-21.333 17.067-21.333h217.6c8.533 0 17.067 8.533 17.067 17.067v217.6c4.267 12.8-4.267 21.333-12.8 21.333zM960 234.667h-217.6c-8.533 0-17.067-8.533-17.067-17.067v-217.6c0-8.533 8.533-17.067 17.067-17.067h217.6c8.533 0 17.067 8.533 17.067 17.067v217.6c4.267 8.533-4.267 17.067-17.067 17.067zM277.333 234.667h-217.6c-8.533 0-17.067-8.533-17.067-17.067v-217.6c0-12.8 8.533-21.333 17.067-21.333h217.6c12.8 0 21.333 8.533 21.333 17.067v217.6c0 12.8-8.533 21.333-21.333 21.333zM622.933 917.333h-217.6c-12.8 0-21.333-8.533-21.333-17.067v-217.6c0-12.8 8.533-21.333 21.333-21.333h217.6c8.533 0 17.067 8.533 17.067 17.067v221.867c0 8.533-8.533 17.067-17.067 17.067zM964.267 917.333h-217.6c-12.8 0-21.333-8.533-21.333-17.067v-217.6c0-12.8 8.533-21.333 21.333-21.333h217.6c8.533 0 17.067 8.533 17.067 17.067v221.867c0 8.533-8.533 17.067-17.067 17.067zM281.6 917.333h-217.6c-12.8 0-21.333-8.533-21.333-17.067v-217.6c0-12.8 8.533-21.333 21.333-21.333h217.6c8.533 0 17.067 8.533 17.067 17.067v221.867c0 8.533-8.533 17.067-17.067 17.067z" />
<glyph unicode="&#xe929;" glyph-name="productos" d="M964.267 746.667c0 0 0 0 0 0 0 4.267 0 8.533 0 12.8 0 0 0 4.267 0 4.267 0 4.267-4.267 4.267-4.267 8.533 0 0 0 4.267-4.267 4.267 0 4.267-4.267 4.267-4.267 4.267s0 0-4.267 0c0 0 0 0 0 0-4.267 0-8.533 4.267-8.533 4.267s0 0 0 0l-396.8 132.267c-8.533 0-17.067 0-25.6 0l-426.667-132.267c0 0 0 0 0 0-4.267 0-8.533-4.267-12.8-4.267 0 0 0 0 0 0s0 0 0 0c-4.267 0-4.267-4.267-8.533-4.267 0 0 0-4.267-4.267-4.267 0-4.267-4.267-4.267-4.267-8.533 0 0 0-4.267 0-4.267 0-4.267 0-4.267 0-8.533 0 0 0 0 0-4.267 0 0 0 0 0 0s0 0 0 0v-537.6c0-17.067 8.533-29.867 25.6-38.4l392.533-183.467c0 0 0 0 0 0 4.267 0 8.533-4.267 17.067-4.267 4.267 0 12.8 0 17.067 4.267 0 0 0 0 0 0l426.667 200.533c17.067 8.533 25.6 21.333 25.6 38.4v520.533c0-4.267 0-4.267 0 0 0 0 0 0 0 0zM494.933 627.2l-68.267 25.6 298.667 110.933 68.267-21.333-298.667-115.2zM529.067 832l68.267-21.333-298.667-98.133-72.533 25.6 302.933 93.867zM145.067 678.4l89.6-38.4v-238.933l132.267-55.467v243.2l85.333-34.133v-460.8l-307.2 145.067v439.467zM537.6 89.6v460.8l341.333 132.267v-435.2l-341.333-157.867z" />
<glyph unicode="&#xe92a;" glyph-name="cajero" d="M921.6 917.333h-823.467c-29.867 0-55.467-25.6-55.467-59.733v-819.2c0-34.133 25.6-59.733 55.467-59.733h819.2c34.133 0 59.733 25.6 59.733 59.733v819.2c0 34.133-25.6 59.733-55.467 59.733zM891.733 64h-763.733v768h768v-768zM682.667 746.667h-469.333v-341.333h469.333v341.333zM640 448h-384v256h384v-256zM725.333 746.667h85.333v-85.333h-85.333v85.333zM725.333 618.667h85.333v-85.333h-85.333v85.333zM725.333 490.667h85.333v-85.333h-85.333v85.333zM810.667 281.6h-597.333v-128h597.333v128zM768 192h-512v42.667h512v-42.667z" />
<glyph unicode="&#xe92b;" glyph-name="comex" d="M985.6 448c0 260.267-209.067 469.333-469.333 469.333s-469.333-209.067-469.333-469.333c0-260.267 209.067-469.333 469.333-469.333 81.067 0 157.867 21.333 226.133 59.733v0l243.2 145.067v264.533c0 0 0 0 0 0zM742.4 537.6l51.2-29.867-179.2-98.133-46.933 25.6 174.933 102.4zM541.867 401.067l55.467-29.867v-72.533l59.733-34.133v72.533l64-34.133v-209.067l-179.2 106.667v200.533zM742.4 345.6l-64 34.133 174.933 93.867 68.267-38.4-179.2-89.6zM891.733 499.2l-115.2 68.267c-8.533 46.933-17.067 85.333-34.133 123.733 17.067 8.533 34.133 12.8 51.2 21.333 55.467-59.733 89.6-132.267 98.133-213.333zM759.467 742.4c-12.8-4.267-25.6-8.533-38.4-17.067-12.8 29.867-29.867 51.2-46.933 72.533 29.867-12.8 59.733-34.133 85.333-55.467zM533.333 832c17.067 0 34.133-4.267 51.2-4.267 29.867-25.6 68.267-59.733 98.133-110.933-46.933-12.8-98.133-17.067-149.333-21.333v136.533zM533.333 652.8c59.733 0 119.467 8.533 170.667 21.333 12.8-25.6 21.333-55.467 29.867-89.6l-200.533-119.467v187.733zM354.133 793.6c-17.067-17.067-34.133-42.667-46.933-68.267-12.8 4.267-29.867 8.533-42.667 12.8 25.6 21.333 55.467 42.667 89.6 55.467zM234.667 708.267c17.067-8.533 34.133-17.067 51.2-21.333-25.6-59.733-42.667-132.267-42.667-221.867h-110.933c4.267 93.867 42.667 179.2 102.4 243.2zM132.267 430.933h110.933c4.267-93.867 25.6-170.667 51.2-230.4-21.333-4.267-38.4-12.8-55.467-21.333-64 68.267-102.4 157.867-106.667 251.733zM273.067 149.333c12.8 4.267 29.867 12.8 42.667 17.067 17.067-29.867 34.133-51.2 55.467-72.533-34.133 12.8-68.267 29.867-98.133 55.467zM499.2 64c-12.8 0-25.6 0-38.4 4.267-29.867 21.333-68.267 55.467-102.4 106.667 42.667 8.533 89.6 12.8 140.8 17.067v-128zM499.2 430.933v-196.267c-59.733 0-110.933-8.533-162.133-17.067-25.6 55.467-46.933 128-51.2 217.6l213.333-4.267zM499.2 465.067h-213.333c0 85.333 17.067 153.6 42.667 209.067 51.2-12.8 110.933-21.333 170.667-21.333v-187.733zM499.2 695.467c-55.467 0-106.667 8.533-153.6 17.067 29.867 51.2 68.267 89.6 98.133 110.933 21.333 4.267 38.4 8.533 55.467 8.533v-136.533zM576 68.267c-17.067 0-29.867-4.267-42.667-4.267v93.867l85.333-51.2c-12.8-12.8-29.867-29.867-42.667-38.4zM763.733 98.133v209.067l179.2 93.867v-196.267l-179.2-106.667z" />
<glyph unicode="&#xe92c;" glyph-name="mundo" d="M516.267 917.333c-260.267 0-469.333-209.067-469.333-469.333s209.067-469.333 469.333-469.333 469.333 209.067 469.333 469.333-209.067 469.333-469.333 469.333zM682.667 716.8c-46.933-12.8-98.133-17.067-149.333-21.333v136.533c17.067 0 34.133-4.267 51.2-4.267 29.867-25.6 68.267-59.733 98.133-110.933zM674.133 797.867c29.867-12.8 59.733-34.133 85.333-55.467-12.8-4.267-25.6-8.533-38.4-17.067-12.8 29.867-29.867 51.2-46.933 72.533zM499.2 465.067h-213.333c0 85.333 17.067 153.6 42.667 209.067 51.2-12.8 110.933-21.333 170.667-21.333v-187.733zM499.2 430.933v-196.267c-59.733 0-110.933-8.533-162.133-17.067-25.6 55.467-46.933 128-51.2 217.6h213.333v-4.267zM533.333 430.933h213.333c-4.267-89.6-21.333-162.133-51.2-221.867-51.2 12.8-102.4 21.333-162.133 21.333 0 0 0 200.533 0 200.533zM533.333 465.067v187.733c59.733 0 119.467 8.533 170.667 21.333 25.6-55.467 42.667-123.733 42.667-213.333l-213.333 4.267zM499.2 832v-136.533c-55.467 0-106.667 8.533-153.6 17.067 29.867 51.2 68.267 89.6 98.133 110.933 21.333 4.267 38.4 8.533 55.467 8.533zM307.2 725.333c-12.8 4.267-29.867 8.533-42.667 12.8 25.6 21.333 55.467 42.667 89.6 55.467-17.067-17.067-34.133-42.667-46.933-68.267zM285.867 686.933c-25.6-59.733-42.667-132.267-42.667-221.867h-110.933c4.267 93.867 42.667 179.2 102.4 243.2 17.067-8.533 34.133-17.067 51.2-21.333zM243.2 430.933c4.267-93.867 25.6-170.667 51.2-230.4-21.333-4.267-38.4-12.8-55.467-21.333-64 68.267-102.4 157.867-106.667 251.733h110.933zM315.733 166.4c17.067-29.867 34.133-51.2 55.467-72.533-34.133 12.8-68.267 29.867-98.133 55.467 12.8 4.267 29.867 12.8 42.667 17.067zM358.4 174.933c42.667 8.533 89.6 12.8 140.8 17.067v-128c-12.8 0-25.6 0-38.4 4.267-29.867 21.333-68.267 55.467-102.4 106.667zM533.333 64v128c51.2 0 93.867-8.533 140.8-17.067-34.133-51.2-68.267-85.333-98.133-106.667-17.067 0-29.867-4.267-42.667-4.267zM712.533 162.133c12.8-4.267 29.867-8.533 42.667-17.067-29.867-21.333-59.733-42.667-93.867-55.467 17.067 21.333 34.133 46.933 51.2 72.533zM733.867 200.533c29.867 59.733 51.2 136.533 55.467 230.4h110.933c-4.267-98.133-46.933-187.733-110.933-251.733-17.067 8.533-38.4 12.8-55.467 21.333zM785.067 465.067c0 93.867-17.067 166.4-42.667 226.133 17.067 8.533 34.133 12.8 51.2 21.333 64-68.267 98.133-153.6 102.4-247.467h-110.933z" />
<glyph unicode="&#xe92d;" glyph-name="bellezaSalud2" d="M691.2-21.333c-12.8 0-25.6 0-42.667 4.267-46.933 8.533-93.867 34.133-136.533 68.267-38.4-34.133-85.333-59.733-136.533-68.267-64-12.8-119.467 4.267-162.133 42.667-68.267 59.733-76.8 166.4-29.867 260.267-46.933 25.6-85.333 59.733-110.933 102.4-34.133 55.467-38.4 115.2-17.067 166.4 34.133 89.6 140.8 136.533 256 115.2 17.067 119.467 102.4 204.8 200.533 204.8s183.467-85.333 200.533-200.533c115.2 21.333 221.867-25.6 256-115.2v0c38.4-98.133-21.333-213.333-128-268.8 46.933-93.867 38.4-200.533-29.867-260.267-34.133-34.133-72.533-51.2-119.467-51.2zM256 593.067c-55.467 0-106.667-25.6-123.733-68.267-12.8-29.867-8.533-59.733 12.8-93.867s55.467-64 102.4-81.067c8.533 0 8.533-4.267 12.8-4.267l55.467-17.067-34.133-46.933c-51.2-68.267-55.467-153.6-12.8-192 21.333-21.333 55.467-25.6 93.867-21.333 42.667 8.533 81.067 29.867 110.933 68.267 4.267 4.267 4.267 8.533 4.267 8.533l34.133 42.667 34.133-42.667c0-4.267 4.267-4.267 4.267-8.533 34.133-38.4 72.533-59.733 115.2-68.267 38.4-8.533 68.267 0 93.867 21.333 46.933 38.4 38.4 123.733-12.8 192l-34.133 46.933 55.467 17.067c4.267 0 4.267 0 8.533 4.267 89.6 34.133 140.8 115.2 119.467 174.933-25.6 59.733-115.2 85.333-200.533 51.2l-59.733-21.333v64c-4.267 93.867-59.733 170.667-123.733 170.667s-119.467-76.8-119.467-170.667v-59.733l-59.733 21.333c-25.6 8.533-51.2 12.8-76.8 12.8zM657.067 413.867c0-80.118-64.949-145.067-145.067-145.067s-145.067 64.949-145.067 145.067c0 80.118 64.949 145.067 145.067 145.067s145.067-64.949 145.067-145.067z" />
<glyph unicode="&#xe92e;" glyph-name="ejecutivo" d="M925.867 324.267c-29.867 93.867-89.6 110.933-217.6 140.8-4.267 0-12.8 0-17.067 0-12.8 0-25.6-4.267-38.4-12.8l-140.8-115.2-145.067 119.467c-12.8 8.533-25.6 8.533-38.4 8.533-4.267 0-12.8 0-17.067 0-128-29.867-187.733-46.933-217.6-140.8-4.267-17.067-8.533-34.133-8.533-46.933v-140.8c0-64 51.2-119.467 119.467-119.467h204.8l102.4-72.533 102.4 72.533h204.8c64 0 119.467 51.2 119.467 119.467v140.8c-4.267 12.8-4.267 29.867-12.8 46.933zM170.667 136.533v140.8c0 4.267 0 8.533 4.267 12.8v8.533c12.8 46.933 25.6 55.467 149.333 81.067l132.267-110.933 21.333-17.067-55.467-149.333h-217.6c-21.333 0-34.133 12.8-34.133 34.133zM853.333 136.533c0-21.333-17.067-34.133-34.133-34.133h-217.6l-55.467 149.333 21.333 21.333 128 110.933c128-29.867 136.533-38.4 149.333-81.067 4.267-8.533 4.267-17.067 4.267-25.6v-140.8zM512 409.6c123.733 0 213.333 153.6 213.333 290.133 0 132.267-85.333 221.867-213.333 221.867s-213.333-89.6-213.333-221.867c0-136.533 93.867-290.133 213.333-290.133zM512 836.267c38.4 0 68.267-12.8 93.867-34.133 21.333-21.333 34.133-59.733 34.133-102.4 0-102.4-64-204.8-128-204.8s-128 102.4-128 204.8c0 85.333 46.933 136.533 128 136.533z" />
<glyph unicode="&#xe92f;" glyph-name="firma" d="M913.067 853.333c-38.4 38.4-93.867 64-149.333 64-38.4 0-76.8-12.8-110.933-34.133-21.333 12.8-55.467 34.133-89.6 34.133s-64-12.8-89.6-38.4l-123.733-119.467c-17.067-17.067-17.067-42.667 0-59.733 8.533-8.533 21.333-12.8 29.867-12.8s21.333 4.267 29.867 12.8l119.467 119.467c12.8 12.8 21.333 12.8 29.867 12.8s17.067-4.267 25.6-8.533l-192-192c-8.533-8.533-17.067-21.333-17.067-38.4 0-8.533 4.267-21.333 8.533-29.867l-200.533-200.533c-64-64-64-166.4-8.533-234.667l-34.133-34.133c-8.533-8.533-8.533-21.333 0-29.867 8.533 0 12.8 0 21.333 0s12.8 0 17.067 4.267l29.867 38.4c29.867-21.333 64-29.867 93.867-29.867 42.667 0 85.333 17.067 119.467 51.2l200.533 200.533c8.533-4.267 17.067-8.533 29.867-8.533v0c12.8 0 25.6 4.267 38.4 17.067l217.6 217.6c38.4 38.4 64 93.867 64 149.333s-21.333 106.667-59.733 149.333zM366.933 183.467c-17.067-17.067-38.4-25.6-59.733-25.6s-42.667 8.533-59.733 25.6-25.6 38.4-25.6 59.733 8.533 42.667 25.6 59.733l196.267 196.267 119.467-119.467-196.267-196.267zM853.333 610.133l-196.267-196.267-179.2 179.2 192 196.267c46.933 46.933 132.267 46.933 179.2 0 25.6-25.6 38.4-55.467 38.4-89.6s-12.8-64-34.133-89.6zM955.733-17.067h-887.467c-12.8 0-21.333 8.533-21.333 21.333s8.533 21.333 21.333 21.333h887.467c12.8 0 21.333-8.533 21.333-21.333s-8.533-21.333-21.333-21.333z" />
<glyph unicode="&#xe930;" glyph-name="llave" d="M264.533 695.467c-42.667 0-85.333-12.8-123.733-38.4-55.467-34.133-93.867-85.333-106.667-149.333s0-132.267 38.4-187.733v0c4.267-8.533 12.8-12.8 17.067-21.333l8.533-8.533c46.933-46.933 106.667-72.533 170.667-72.533 59.733 0 119.467 21.333 166.4 68.267 21.333 21.333 34.133 42.667 46.933 64 4.267 4.267 4.267 8.533 4.267 8.533h38.4l38.4-21.333 46.933 21.333 46.933-25.6 46.933 21.333 51.2-21.333 51.2 25.6 38.4-12.8c0 0 115.2 98.133 123.733 106.667 0 0 0 0 4.267 4.267 8.533 12.8 8.533 25.6 8.533 34.133s0 25.6-17.067 38.4l-8.533 8.533c-8.533 8.533-17.067 17.067-29.867 29.867-17.067 17.067-29.867 25.6-46.933 25.6 0 0 0 0 0 0-29.867 0-59.733 0-89.6 0-55.467 0-110.933 0-166.4 0h-157.867c-4.267 4.267-4.267 4.267-8.533 8.533l-4.267 4.267c-46.933 59.733-115.2 89.6-187.733 89.6v0zM268.8 302.933c-38.4 0-76.8 17.067-106.667 42.667l-8.533 8.533c-4.267 4.267-8.533 8.533-8.533 12.8-25.6 38.4-38.4 81.067-29.867 123.733s34.133 76.8 68.267 98.133c25.6 17.067 51.2 21.333 81.067 21.333v0c46.933 0 89.6-21.333 119.467-55.467l4.267-4.267c4.267-4.267 8.533-8.533 8.533-12.8l25.6-29.867h196.267c55.467 0 110.933 0 166.4 0 25.6 0 51.2 0 76.8 0 0 0 4.267-4.267 4.267-4.267v0 0c4.267-4.267 8.533-4.267 8.533-8.533-17.067-17.067-38.4-34.133-59.733-51.2l-25.6 8.533-34.133-17.067-12.8-8.533-12.8 4.267-25.6 17.067-42.667-21.333-8.533 4.267-38.4 21.333-38.4-17.067-4.267-4.267h-4.267l-21.333 17.067h-110.933l-25.6-42.667-4.267-8.533v-4.267c-8.533-17.067-17.067-34.133-29.867-42.667-29.867-29.867-68.267-46.933-106.667-46.933v0zM285.867 554.667c-38.4 0-68.267-29.867-68.267-68.267s29.867-68.267 68.267-68.267c38.4 0 68.267 29.867 68.267 68.267s-29.867 68.267-68.267 68.267v0z" />
<glyph unicode="&#xe931;" glyph-name="inscripcionConservador" d="M806.4 200.533v482.133c0 106.667-85.333 192-192 192h-435.2c-25.6 0-38.4-34.133-17.067-51.2 25.6-21.333 46.933-51.2 46.933-81.067 0 0 0 0 0-4.267v-627.2c0-72.533 59.733-132.267 132.267-132.267h469.333c68.267 0 102.4 51.2 98.133 115.2 0 64-38.4 106.667-102.4 106.667zM294.4 115.2v674.133h320c59.733 0 106.667-46.933 106.667-106.667v-477.867h-277.333c-21.333 0-34.133-25.6-21.333-42.667 17.067-21.333 25.6-42.667 25.6-72.533 0-8.533 0-17.067-4.267-25.6h-102.4c-25.6 0-46.933 21.333-46.933 51.2zM849.067 38.4c-8.533-12.8-21.333-17.067-38.4-17.067h-332.8c12.8 21.333 17.067 42.667 17.067 68.267s-4.267 46.933-17.067 68.267h324.267c55.467 0 64-46.933 64-64 0-25.6-4.267-46.933-17.067-55.467zM482.133 302.933c12.8-4.267 25.6-8.533 38.4-8.533l25.6-81.067 34.133 64 76.8-21.333-38.4 76.8c8.533 8.533 17.067 21.333 21.333 29.867 12.8 29.867 12.8 64 0 93.867s-34.133 51.2-64 64c-29.867 12.8-64 12.8-93.867 0s-51.2-34.133-64-64c-12.8-29.867-12.8-64 0-93.867 12.8-25.6 34.133-46.933 64-59.733zM456.533 443.733c8.533 17.067 21.333 34.133 42.667 42.667 17.067 8.533 38.4 8.533 59.733 0 17.067-8.533 34.133-21.333 42.667-42.667 8.533-17.067 8.533-38.4 0-59.733-8.533-17.067-21.333-34.133-42.667-42.667-17.067-8.533-38.4-8.533-59.733 0-17.067 8.533-34.133 21.333-42.667 42.667-8.533 17.067-8.533 38.4 0 59.733zM366.933 648.533h294.4c12.8 0 21.333 8.533 21.333 21.333s-8.533 21.333-21.333 21.333h-294.4c-12.8 0-21.333-8.533-21.333-21.333s8.533-21.333 21.333-21.333zM601.6 597.333c0 12.8-8.533 21.333-21.333 21.333h-213.333c-12.8 0-21.333-8.533-21.333-21.333s8.533-21.333 21.333-21.333h217.6c8.533 0 17.067 8.533 17.067 21.333z" />
<glyph unicode="&#xe932;" glyph-name="antecedentes" d="M849.067 516.267c0 0 0 0 0 0l-234.667 238.933-162.133 162.133h-298.667c-25.6 0-46.933-21.333-46.933-51.2v-678.4c0-25.6 21.333-51.2 51.2-51.2h29.867v-29.867c0-25.6 21.333-51.2 51.2-51.2h29.867v-29.867c0-25.6 21.333-51.2 51.2-51.2h490.667c25.6 0 51.2 21.333 51.2 51.2l-12.8 490.667zM413.867 832v0l179.2-174.933h-157.867c-8.533 0-17.067 8.533-17.067 17.067v157.867zM192 832h179.2v-157.867c0-34.133 25.6-59.733 59.733-59.733h174.933v-388.267h-413.867v605.867zM226.133 110.933v29.867h413.867c25.6 0 51.2 21.333 51.2 51.2v426.667l38.4-42.667v-469.333c0-4.267-4.267-8.533-8.533-8.533h-486.4c-4.267 4.267-8.533 8.533-8.533 12.8zM810.667 29.867c0-4.267-4.267-8.533-8.533-8.533h-486.4c-4.267 0-8.533 4.267-8.533 8.533v29.867h413.867c25.6 0 51.2 21.333 51.2 51.2v426.667l38.4-38.4v-469.333z" />
<glyph unicode="&#xe933;" glyph-name="estudioTitulo" d="M968.533 51.2l-243.2 243.2c21.333 25.6 38.4 55.467 51.2 85.333h85.333c12.8 0 21.333 8.533 21.333 21.333s-8.533 21.333-21.333 21.333h-72.533c8.533 29.867 17.067 64 17.067 98.133h145.067c12.8 0 21.333 8.533 21.333 21.333s-8.533 21.333-21.333 21.333h-140.8c-4.267 34.133-8.533 68.267-21.333 98.133h166.4c12.8 0 21.333 8.533 21.333 21.333s-8.533 21.333-21.333 21.333h-187.733c-64 128-192 213.333-341.333 213.333-213.333 0-384-170.667-384-384s170.667-384 384-384c89.6 0 174.933 29.867 238.933 85.333l243.2-243.2c8.533-8.533 21.333-12.8 29.867-12.8s21.333 4.267 29.867 12.8c17.067 17.067 17.067 42.667 0 59.733zM426.667 234.667c-166.4 0-298.667 132.267-298.667 298.667s132.267 298.667 298.667 298.667c89.6 0 170.667-38.4 226.133-102.4h-362.667c-25.6 0-42.667-17.067-42.667-42.667s17.067-42.667 42.667-42.667h413.867c8.533-17.067 12.8-38.4 17.067-59.733-4.267 0-4.267 0-8.533 0h-422.4c-25.6 0-42.667-17.067-42.667-42.667s17.067-42.667 42.667-42.667h422.4c4.267 0 8.533 0 12.8 4.267 0-21.333-4.267-38.4-12.8-59.733 0 0 0 0 0 0h-422.4c-25.6 0-42.667-17.067-42.667-42.667s17.067-42.667 42.667-42.667h379.733c-55.467-72.533-145.067-123.733-243.2-123.733z" />
<glyph unicode="&#xe934;" glyph-name="servicios" d="M443.733 405.333c8.533-8.533 25.6-17.067 38.4-17.067 17.067 0 25.6 4.267 38.4 17.067l315.733 311.467c21.333 21.333 21.333 51.2 0 72.533-17.067 21.333-51.2 21.333-72.533 0l-281.6-277.333-115.2 123.733c-21.333 21.333-51.2 21.333-72.533 0s-21.333-51.2 0-72.533l149.333-157.867zM951.467 375.467v0c-46.933 0-89.6 8.533-128 17.067-68.267 12.8-128 25.6-200.533 8.533-42.667-12.8-68.267-25.6-93.867-38.4-29.867-12.8-51.2-25.6-98.133-34.133-25.6-8.533-46.933-21.333-59.733-42.667-64 17.067-102.4 42.667-140.8 68.267-17.067 8.533-34.133 21.333-55.467 29.867-76.8 38.4-110.933-4.267-119.467-17.067-12.8-12.8-12.8-29.867-8.533-46.933 4.267-21.333 17.067-38.4 34.133-46.933 34.133-21.333 89.6-59.733 140.8-98.133 59.733-46.933 123.733-93.867 162.133-110.933 8.533-4.267 29.867-17.067 76.8-17.067 25.6 0 51.2 4.267 81.067 12.8 55.467 17.067 93.867 29.867 132.267 42.667 46.933 17.067 85.333 29.867 136.533 42.667 68.267 17.067 136.533 4.267 140.8 4.267 8.533 0 17.067 0 25.6 8.533 8.533 4.267 12.8 12.8 12.8 25.6v166.4c-8.533 8.533-21.333 21.333-38.4 25.6zM938.667 187.733c-25.6 4.267-85.333 8.533-140.8-4.267s-98.133-29.867-140.8-42.667c-34.133-12.8-76.8-25.6-128-42.667-25.6-8.533-46.933-12.8-68.267-12.8-34.133 0-51.2 8.533-55.467 12.8-34.133 21.333-98.133 64-157.867 110.933-51.2 38.4-106.667 76.8-140.8 98.133-12.8 4.267-17.067 12.8-21.333 21.333 0 4.267 0 12.8 4.267 17.067 4.267 8.533 17.067 12.8 29.867 12.8s25.6-4.267 38.4-8.533c17.067-8.533 34.133-21.333 51.2-29.867 38.4-25.6 85.333-55.467 157.867-72.533 8.533-25.6 29.867-51.2 72.533-51.2 98.133 0 153.6 46.933 157.867 46.933 8.533 8.533 8.533 21.333 4.267 29.867-8.533 8.533-21.333 8.533-29.867 4.267 0 0-46.933-38.4-132.267-38.4 0 0 0 0 0 0s0 0 0 0c-25.6 0-29.867 17.067-29.867 21.333 0 0 0 0 0 4.267 4.267 8.533 12.8 21.333 34.133 25.6 51.2 12.8 81.067 25.6 110.933 38.4 21.333 12.8 46.933 25.6 85.333 34.133 59.733 17.067 119.467 4.267 179.2-8.533 38.4-8.533 81.067-17.067 123.733-17.067v-149.333z" />
<glyph unicode="&#xe935;" glyph-name="construccion" d="M341.333 605.867h345.6l-55.467 85.333-38.4-21.333-25.6 29.867-51.2 25.6-38.4-21.333h-59.733l-12.8-34.133-46.933-21.333zM1019.733 546.133c-8.533 21.333-34.133 34.133-55.467 25.6l-106.667-38.4c0 0 0 0 0 0-4.267 0-4.267-4.267-8.533-4.267 0 0-4.267-4.267-4.267-4.267s-4.267-4.267-4.267-4.267c0-4.267-4.267-4.267-4.267-8.533 0 0 0 0 0 0l-59.733-149.333h-4.267v170.667c0 25.6-17.067 42.667-42.667 42.667h-430.933c-17.067 0-29.867-8.533-38.4-25.6-8.533-12.8-8.533-29.867 0-42.667l140.8-230.4-29.867-4.267c-29.867 55.467-85.333 98.133-153.6 98.133-93.867 0-170.667-76.8-170.667-170.667s76.8-170.667 170.667-170.667c93.867 0 166.4 72.533 170.667 166.4l234.667 51.2 51.2-179.2c0 0 0 0 0-4.267 0 0 0-4.267 4.267-4.267 0-4.267 4.267-4.267 4.267-8.533 0 0 4.267-4.267 4.267-4.267 4.267-4.267 4.267-4.267 8.533-4.267 0 0 4.267 0 4.267-4.267 4.267 0 8.533-4.267 17.067-4.267 0 0 0 0 0 0s0 0 0 0c4.267 0 8.533 0 8.533 0s0 0 4.267 0 4.267 4.267 8.533 4.267c4.267 0 4.267 4.267 8.533 4.267 0 0 4.267 4.267 4.267 4.267 0 4.267 4.267 4.267 4.267 8.533s0 4.267 4.267 8.533c0 4.267 0 4.267 0 8.533 0 0 0 0 0 4.267l-4.267 192 59.733 12.8c0 0 0 0 0 0 4.267 0 8.533 4.267 12.8 4.267 0 0 0 0 0 0 4.267 4.267 4.267 4.267 8.533 8.533 0 0 0 4.267 4.267 4.267 0 0 0 4.267 4.267 4.267l64 153.6 89.6 34.133c21.333 8.533 29.867 34.133 21.333 55.467zM375.467 490.667h315.733v-149.333l-196.267-42.667-119.467 192zM217.6 106.667c-46.933 0-85.333 38.4-85.333 85.333s38.4 85.333 85.333 85.333c25.6 0 46.933-12.8 64-29.867l-72.533-17.067c-21.333-4.267-38.4-25.6-34.133-51.2 4.267-21.333 21.333-34.133 42.667-34.133 4.267 0 4.267 0 8.533 0l72.533 25.6c-8.533-38.4-42.667-64-81.067-64z" />
<glyph unicode="&#xe936;" glyph-name="seguroInvalidez" d="M827.733 162.133l-42.667-4.267-68.267 226.133c-4.267 17.067-21.333 29.867-42.667 29.867h-230.4l-4.267 51.2 145.067 4.267c25.6 0 42.667 21.333 42.667 42.667 0 25.6-21.333 42.667-42.667 42.667l-157.867-8.533-17.067 140.8c-4.267 25.6-25.6 38.4-46.933 38.4-25.6-4.267-38.4-25.6-38.4-46.933l38.4-315.733c4.267-21.333 21.333-38.4 42.667-38.4h238.933l68.267-230.4c4.267-17.067 21.333-29.867 42.667-29.867 0 0 4.267 0 4.267 0l81.067 8.533c21.333 4.267 38.4 25.6 38.4 46.933-4.267 25.6-25.6 42.667-51.2 42.667zM349.867 742.4c46.933 0 85.333 38.4 85.333 85.333s-38.4 85.333-85.333 85.333c-46.933 0-85.333-38.4-85.333-85.333s38.4-85.333 85.333-85.333zM439.467 64c-115.2 0-204.8 93.867-204.8 204.8 0 64 29.867 119.467 72.533 157.867l-8.533 98.133c-89.6-51.2-149.333-145.067-149.333-256 0-162.133 132.267-290.133 290.133-290.133 93.867 0 179.2 46.933 230.4 115.2l-34.133 119.467c-25.6-85.333-102.4-149.333-196.267-149.333z" />
<glyph unicode="&#xe937;" glyph-name="seguroDesgravamen" d="M857.6 588.8h-51.2c0 166.4-132.267 298.667-298.667 298.667s-298.667-132.267-298.667-298.667v0h-42.667c-42.667 0-81.067-34.133-81.067-81.067v-452.267c0-42.667 34.133-81.067 81.067-81.067h691.2c42.667 0 81.067 34.133 81.067 81.067v452.267c0 46.933-34.133 81.067-81.067 81.067zM294.4 588.8c0 119.467 93.867 213.333 213.333 213.333s213.333-93.867 213.333-213.333v0h-426.667zM853.333 102.4c0-21.333-17.067-38.4-38.4-38.4h-605.867c-21.333 0-38.4 17.067-38.4 38.4v362.667c0 21.333 17.067 38.4 38.4 38.4h601.6c21.333 0 38.4-17.067 38.4-38.4v-362.667zM597.333 366.933h-42.667v38.4c0 25.6-17.067 42.667-42.667 42.667s-42.667-17.067-42.667-42.667v-38.4h-42.667c-25.6 0-42.667-17.067-42.667-42.667s17.067-42.667 42.667-42.667h42.667v-132.267c0-25.6 17.067-42.667 42.667-42.667s42.667 17.067 42.667 42.667v132.267h42.667c25.6 0 42.667 17.067 42.667 42.667s-21.333 42.667-42.667 42.667z" />
<glyph unicode="&#xe938;" glyph-name="segurorobo" d="M1006.933 524.8l-469.333 384h-4.267c-4.267 0-4.267 4.267-8.533 4.267s-4.267 0-8.533 4.267c-4.267 0-4.267 0-8.533 0s-4.267 0-8.533 0-4.267 0-8.533-4.267c-4.267 0-4.267-4.267-8.533-4.267h-4.267l-264.533-226.133v106.667h-128l-4.267-213.333-68.267-55.467c-17.067-12.8-21.333-42.667-4.267-59.733 8.533-8.533 21.333-12.8 34.133-12.8 8.533 0 17.067 4.267 25.6 8.533l443.733 362.667 443.733-362.667c8.533-8.533 17.067-8.533 25.6-8.533 12.8 0 25.6 4.267 34.133 17.067 12.8 17.067 12.8 42.667-8.533 59.733zM896 448c-25.6 0-42.667-17.067-42.667-42.667v-341.333h-682.667v341.333c0 25.6-17.067 42.667-42.667 42.667s-42.667-17.067-42.667-42.667v-341.333c0-46.933 38.4-85.333 85.333-85.333h682.667c46.933 0 85.333 38.4 85.333 85.333v341.333c0 25.6-17.067 42.667-42.667 42.667zM640 435.2c0 4.267 0 8.533 0 12.8 0 68.267-55.467 128-128 128-68.267 0-128-55.467-128-128 0-4.267 0-8.533 0-12.8-25.6-4.267-42.667-25.6-42.667-51.2v-149.333c0-29.867 25.6-51.2 51.2-51.2h238.933c29.867 0 51.2 25.6 51.2 51.2v153.6c4.267 21.333-17.067 42.667-42.667 46.933zM512 533.333c46.933 0 85.333-38.4 85.333-85.333 0-4.267 0-8.533 0-8.533h-166.4c0 4.267 0 8.533 0 8.533-4.267 46.933 34.133 85.333 81.067 85.333z" />
<glyph unicode="&#xe939;" glyph-name="segurosismo" d="M1006.933 524.8l-469.333 384h-4.267c-4.267 0-4.267 4.267-8.533 4.267s-4.267 0-8.533 4.267c-4.267 0-4.267 0-8.533 0s-4.267 0-8.533 0-4.267 0-8.533-4.267c-4.267 0-4.267-4.267-8.533-4.267h-4.267l-264.533-226.133v106.667h-128l-4.267-213.333-68.267-55.467c-17.067-12.8-21.333-42.667-4.267-59.733 8.533-8.533 21.333-12.8 34.133-12.8 8.533 0 17.067 4.267 25.6 8.533l443.733 362.667 443.733-362.667c8.533-8.533 17.067-8.533 25.6-8.533 12.8 0 25.6 4.267 34.133 17.067 12.8 17.067 12.8 42.667-8.533 59.733zM896 448c-25.6 0-42.667-17.067-42.667-42.667v-341.333h-174.933l-64 110.933 102.4 140.8-290.133 315.733 46.933-298.667-132.267-140.8 46.933-128h-217.6v341.333c0 25.6-17.067 42.667-42.667 42.667s-42.667-17.067-42.667-42.667v-341.333c0-46.933 38.4-85.333 85.333-85.333h294.4l-29.867 76.8-46.933 123.733 128 136.533-25.6 183.467 174.933-187.733-98.133-136.533 72.533-123.733 38.4-76.8h174.933c46.933 0 85.333 38.4 85.333 85.333v341.333c0 29.867-17.067 46.933-42.667 46.933z" />
<glyph unicode="&#xe93a;" glyph-name="seguroIncendio" d="M896 448c-25.6 0-42.667-17.067-42.667-42.667v-341.333h-682.667v341.333c0 25.6-17.067 42.667-42.667 42.667s-42.667-17.067-42.667-42.667v-341.333c0-46.933 38.4-85.333 85.333-85.333h682.667c46.933 0 85.333 38.4 85.333 85.333v341.333c0 25.6-17.067 42.667-42.667 42.667zM1006.933 524.8l-469.333 384h-4.267c-4.267 0-4.267 4.267-8.533 4.267s-4.267 0-8.533 4.267c-4.267 0-4.267 0-8.533 0s-4.267 0-8.533 0-4.267 0-8.533-4.267c-4.267 0-4.267-4.267-8.533-4.267h-4.267l-264.533-226.133v106.667h-128l-4.267-213.333-68.267-55.467c-17.067-12.8-21.333-42.667-4.267-59.733 8.533-8.533 21.333-12.8 34.133-12.8 8.533 0 17.067 4.267 25.6 8.533l443.733 362.667 443.733-362.667c8.533-8.533 17.067-8.533 25.6-8.533 12.8 0 25.6 4.267 34.133 17.067 12.8 17.067 12.8 42.667-8.533 59.733zM469.333 89.6h-8.533c-38.4 12.8-136.533 46.933-153.6 136.533-12.8 42.667-4.267 106.667 4.267 149.333 0 4.267 4.267 8.533 4.267 8.533 17.067 46.933 38.4 85.333 46.933 98.133l38.4 51.2 4.267-68.267c0-8.533 0-25.6 4.267-34.133 0 0 4.267-12.8 17.067-25.6 8.533 17.067 4.267 34.133 4.267 55.467-4.267 55.467 42.667 132.267 123.733 192l38.4 29.867-4.267-46.933c-4.267-34.133-8.533-128 55.467-200.533 81.067-93.867 81.067-153.6 76.8-187.733-12.8-98.133-110.933-140.8-140.8-149.333l-12.8-4.267c-17.067 0-25.6 8.533-34.133 12.8-4.267 8.533-8.533 17.067-4.267 25.6s8.533 17.067 17.067 21.333c8.533 8.533 34.133 38.4 29.867 72.533-4.267 29.867-4.267 51.2-42.667 98.133-8.533-21.333-21.333-46.933-42.667-72.533-34.133-34.133-21.333-81.067 4.267-106.667 8.533-12.8 8.533-25.6 0-38.4-4.267-12.8-17.067-17.067-25.6-17.067zM460.8 115.2c0 0 0 0 0 0s0 0 0 0zM371.2 405.333c-4.267-12.8-12.8-21.333-17.067-38.4v0c0 0 0-4.267-4.267-4.267-8.533-34.133-17.067-89.6-4.267-128 8.533-51.2 55.467-76.8 93.867-93.867-21.333 42.667-21.333 93.867 17.067 136.533 29.867 29.867 38.4 55.467 38.4 89.6l4.267 51.2 34.133-34.133c72.533-76.8 76.8-115.2 81.067-153.6 4.267-29.867-8.533-59.733-21.333-81.067 34.133 17.067 76.8 46.933 81.067 98.133 0 29.867 4.267 76.8-68.267 157.867-55.467 64-68.267 132.267-68.267 183.467-42.667-46.933-68.267-98.133-68.267-123.733s4.267-68.267-25.6-106.667l-12.8-17.067-17.067 12.8c-21.333 21.333-34.133 38.4-42.667 51.2z" />
<glyph unicode="&#xe93b;" glyph-name="ahorroSistematico" d="M738.133 759.467v0c4.267-4.267 0-4.267 0-8.533-21.333-34.133-25.6-68.267-17.067-106.667 0-4.267 4.267-8.533 8.533-12.8 46.933-34.133 81.067-81.067 98.133-132.267 4.267-8.533 12.8-17.067 21.333-17.067 4.267 0 4.267 0 8.533 0s8.533 0 12.8 0c4.267 0 4.267 0 8.533 0 12.8 0 17.067-8.533 17.067-17.067 0-29.867 0-59.733 0-93.867 0-8.533-8.533-17.067-17.067-17.067-4.267 0-8.533 0-12.8 0h-4.267c-4.267 0-4.267 0-8.533 0-12.8 0-21.333-4.267-25.6-17.067-17.067-51.2-51.2-93.867-89.6-128-29.867-25.6-46.933-55.467-51.2-89.6 0-8.533 0-21.333 0-34.133 0-4.267 0-8.533 0-8.533-42.667 0-85.333 0-132.267 0 0 8.533 0 17.067 0 25.6 0 17.067-8.533 25.6-25.6 25.6 0 0 0 0-4.267 0-8.533 0-17.067 0-29.867 0-21.333 0-42.667 0-59.733 0 0 0 0 0-4.267 0-17.067 0-25.6-8.533-25.6-25.6 0-8.533 0-17.067 0-25.6-42.667 0-85.333 0-128 0-4.267 17.067-4.267 34.133-8.533 51.2-8.533 34.133-25.6 59.733-51.2 85.333-42.667 46.933-72.533 98.133-85.333 157.867-17.067 85.333 8.533 157.867 64 221.867 59.733 64 136.533 102.4 221.867 115.2 21.333 4.267 42.667 4.267 64 4.267 38.4 0 81.067-4.267 119.467-17.067 4.267 0 4.267 0 8.533 0 8.533 0 12.8 4.267 21.333 12.8 25.6 29.867 64 46.933 106.667 51.2v0zM738.133 844.8c-4.267 0-8.533 0-8.533 0-55.467-8.533-98.133-25.6-136.533-55.467-34.133 8.533-72.533 12.8-106.667 12.8-25.6 0-51.2 0-76.8-4.267-115.2-21.333-204.8-68.267-273.067-145.067-76.8-85.333-106.667-187.733-85.333-294.4 12.8-76.8 51.2-145.067 106.667-200.533 12.8-17.067 21.333-34.133 25.6-51.2 0-8.533 4.267-17.067 4.267-25.6 0-4.267 0-12.8 4.267-17.067 8.533-42.667 42.667-72.533 85.333-72.533h128c29.867 0 59.733 17.067 72.533 42.667 17.067-25.6 42.667-42.667 72.533-42.667h132.267c46.933 0 85.333 38.4 85.333 85.333v8.533c0 4.267 0 8.533 0 12.8s0 8.533 0 8.533c0 8.533 4.267 21.333 25.6 38.4 42.667 38.4 76.8 81.067 102.4 128 51.2 8.533 85.333 51.2 89.6 102.4 0 29.867 0 64 0 93.867 0 51.2-38.4 93.867-89.6 102.4-21.333 42.667-51.2 81.067-89.6 115.2 0 4.267 4.267 12.8 8.533 21.333 4.267 4.267 4.267 8.533 4.267 12.8 12.8 21.333 12.8 46.933 4.267 72.533-8.533 21.333-25.6 38.4-46.933 46.933-8.533 0-21.333 4.267-38.4 4.267v0zM324.267 490.667h-51.2c-8.533 0-17.067 8.533-17.067 17.067v51.2c0 8.533 8.533 17.067 17.067 17.067h51.2c8.533 0 17.067-8.533 17.067-17.067v-51.2c0-8.533-8.533-17.067-17.067-17.067zM494.933 490.667h-51.2c-8.533 0-17.067 8.533-17.067 17.067v51.2c0 8.533 8.533 17.067 17.067 17.067h51.2c8.533 0 17.067-8.533 17.067-17.067v-51.2c0-8.533-8.533-17.067-17.067-17.067zM665.6 490.667h-51.2c-8.533 0-17.067 8.533-17.067 17.067v51.2c0 8.533 8.533 17.067 17.067 17.067h51.2c12.8 0 17.067-8.533 17.067-17.067v-51.2c0-8.533-4.267-17.067-17.067-17.067zM324.267 362.667h-51.2c-8.533 0-17.067 8.533-17.067 17.067v51.2c0 8.533 8.533 17.067 17.067 17.067h51.2c8.533 0 17.067-8.533 17.067-17.067v-51.2c0-8.533-8.533-17.067-17.067-17.067zM494.933 362.667h-51.2c-8.533 0-17.067 8.533-17.067 17.067v51.2c0 8.533 8.533 17.067 17.067 17.067h51.2c8.533 0 17.067-8.533 17.067-17.067v-51.2c0-8.533-8.533-17.067-17.067-17.067zM665.6 362.667h-51.2c-8.533 0-17.067 8.533-17.067 17.067v51.2c0 8.533 8.533 17.067 17.067 17.067h51.2c8.533 0 17.067-8.533 17.067-17.067v-51.2c0-8.533-4.267-17.067-17.067-17.067zM324.267 234.667h-51.2c-8.533 0-17.067 8.533-17.067 17.067v51.2c0 8.533 8.533 17.067 17.067 17.067h51.2c8.533 0 17.067-8.533 17.067-17.067v-51.2c0-8.533-8.533-17.067-17.067-17.067zM494.933 234.667h-51.2c-8.533 0-17.067 8.533-17.067 17.067v51.2c0 8.533 8.533 17.067 17.067 17.067h51.2c8.533 0 17.067-8.533 17.067-17.067v-51.2c0-8.533-8.533-17.067-17.067-17.067z" />
<glyph unicode="&#xe93c;" glyph-name="transferencia" d="M977.067 311.467c-12.8 29.867-42.667 51.2-76.8 51.2h-21.333v209.067c0 46.933-38.4 89.6-85.333 89.6h-153.6c-21.333 0-42.667-8.533-59.733-25.6 0 21.333-8.533 42.667-21.333 59.733l-187.733 196.267c-29.867 34.133-89.6 34.133-123.733 0l-183.467-200.533c-21.333-25.6-29.867-64-17.067-98.133 12.8-29.867 42.667-51.2 76.8-51.2h21.333v-204.8c0-46.933 38.4-89.6 85.333-89.6h153.6c21.333 0 42.667 8.533 59.733 25.6 0-21.333 8.533-42.667 21.333-59.733l183.467-196.267c29.867-34.133 89.6-34.133 123.733 0l183.467 196.267c25.6 25.6 34.133 64 21.333 98.133zM388.267 610.133v-251.733c0-12.8-8.533-21.333-21.333-21.333h-110.933c-12.8 0-21.333 8.533-21.333 21.333v251.733c0 8.533-8.533 17.067-17.067 17.067h-59.733c-12.8 0-17.067 12.8-8.533 25.6l162.133 179.2 166.4-179.2c8.533-8.533 0-25.6-8.533-25.6h-64c-12.8 0-17.067-8.533-17.067-17.067zM473.6 341.333v200.533h21.333c21.333 0 42.667 8.533 59.733 25.6v-204.8h-21.333c-25.6 0-46.933-8.533-59.733-21.333zM878.933 256l-166.4-179.2-166.4 179.2c-8.533 8.533 0 25.6 8.533 25.6h59.733c8.533 0 17.067 8.533 17.067 17.067v251.733c0 12.8 8.533 21.333 21.333 21.333h115.2c12.8 0 21.333-8.533 21.333-21.333v-251.733c0-8.533 8.533-17.067 17.067-17.067h59.733c17.067-4.267 21.333-17.067 12.8-25.6z" />
<glyph unicode="&#xe93d;" glyph-name="titular" d="M512 917.333c-260.267 0-469.333-209.067-469.333-469.333s209.067-469.333 469.333-469.333 469.333 209.067 469.333 469.333c0 260.267-209.067 469.333-469.333 469.333zM290.133 132.267c25.6 64 68.267 119.467 123.733 149.333 29.867-12.8 59.733-21.333 98.133-21.333 34.133 0 68.267 8.533 98.133 25.6 55.467-29.867 98.133-81.067 123.733-149.333-59.733-46.933-136.533-72.533-221.867-72.533-81.067 0-157.867 25.6-221.867 68.267zM512 345.6c-76.8 0-140.8 64-140.8 140.8s64 140.8 140.8 140.8c76.8 0 140.8-64 140.8-140.8s-64-140.8-140.8-140.8zM802.133 196.267c-29.867 59.733-72.533 106.667-119.467 145.067 34.133 38.4 55.467 89.6 55.467 145.067 0 123.733-102.4 226.133-226.133 226.133s-226.133-102.4-226.133-226.133c0-55.467 21.333-106.667 55.467-149.333-46.933-34.133-89.6-85.333-115.2-145.067-59.733 68.267-98.133 157.867-98.133 256 0 213.333 170.667 384 384 384s384-170.667 384-384c0-98.133-34.133-183.467-93.867-251.733z" />
<glyph unicode="&#xe93e;" glyph-name="titulares" d="M904.533 443.733c21.333 34.133 29.867 68.267 29.867 110.933 0 119.467-93.867 213.333-213.333 213.333-115.2 0-209.067-89.6-213.333-204.8-4.267 115.2-98.133 204.8-213.333 204.8-119.467 0-213.333-93.867-213.333-213.333 0-42.667 12.8-76.8 34.133-110.933-68.267-59.733-115.2-149.333-115.2-251.733 0-25.6 17.067-42.667 42.667-42.667s42.667 17.067 42.667 42.667c0 76.8 34.133 145.067 89.6 187.733 34.133-25.6 76.8-38.4 123.733-38.4s89.6 17.067 123.733 38.4c12.8-12.8 29.867-25.6 38.4-42.667-21.333-42.667-34.133-93.867-34.133-149.333 0-25.6 17.067-42.667 42.667-42.667s42.667 17.067 42.667 42.667c0 76.8 34.133 145.067 89.6 187.733 34.133-25.6 76.8-38.4 123.733-38.4s89.6 17.067 123.733 38.4c55.467-42.667 89.6-110.933 89.6-187.733 0-25.6 17.067-42.667 42.667-42.667s42.667 17.067 42.667 42.667c0 106.667-46.933 196.267-119.467 256zM170.667 554.667c0 72.533 59.733 128 128 128s128-59.733 128-128-59.733-128-128-128-128 55.467-128 128zM482.133 443.733c17.067 29.867 29.867 64 29.867 102.4 0-38.4 12.8-72.533 29.867-102.4-12.8-8.533-21.333-21.333-29.867-29.867-8.533 8.533-21.333 21.333-29.867 29.867zM597.333 554.667c0 72.533 59.733 128 128 128 72.533 0 128-59.733 128-128s-59.733-128-128-128c-72.533 0-128 55.467-128 128z" />
<glyph unicode="&#xe93f;" glyph-name="tasaCompetitiva" d="M392.533 541.867c93.867 0 170.667 76.8 170.667 170.667s-76.8 170.667-170.667 170.667c-93.867 0-170.667-76.8-170.667-170.667 4.267-98.133 76.8-170.667 170.667-170.667zM392.533 772.267c34.133 0 59.733-25.6 59.733-59.733s-25.6-59.733-59.733-59.733-59.733 21.333-59.733 55.467c0 38.4 25.6 64 59.733 64zM750.933 366.933c-93.867 0-170.667-76.8-170.667-170.667s76.8-170.667 170.667-170.667c93.867 0 170.667 76.8 170.667 170.667s-76.8 170.667-170.667 170.667zM750.933 136.533c-34.133 0-59.733 25.6-59.733 59.733s25.6 59.733 59.733 59.733 59.733-25.6 59.733-59.733c4.267-34.133-21.333-59.733-59.733-59.733zM443.733 51.2c0 4.267 4.267 4.267 4.267 8.533l358.4 742.4c17.067 29.867 4.267 68.267-29.867 81.067-29.867 17.067-68.267 4.267-81.067-29.867l-320-669.867-153.6 153.6c-25.6 25.6-64 25.6-89.6 0s-25.6-64 0-89.6l213.333-213.333c12.8-12.8 29.867-17.067 46.933-17.067s34.133 4.267 46.933 17.067c4.267 4.267 4.267 4.267 4.267 8.533s0 4.267 0 8.533z" />
<glyph unicode="&#xe940;" glyph-name="renovacionAutomatica" d="M938.667 746.667h-128v21.333c0 25.6-17.067 42.667-42.667 42.667s-42.667-17.067-42.667-42.667v-21.333h-426.667v21.333c0 25.6-17.067 42.667-42.667 42.667s-42.667-21.333-42.667-42.667v-21.333h-128c-21.333 0-42.667-21.333-42.667-42.667v-640c0-21.333 17.067-42.667 42.667-42.667h853.333c21.333 0 42.667 17.067 42.667 42.667v640c0 21.333-17.067 42.667-42.667 42.667zM896 106.667h-768v554.667h85.333v-21.333c0-25.6 17.067-42.667 42.667-42.667s42.667 17.067 42.667 42.667v21.333h430.933v-21.333c0-25.6 17.067-42.667 42.667-42.667s42.667 17.067 42.667 42.667v21.333h81.067v-554.667zM512 550.4v42.667c0 12.8-17.067 21.333-29.867 12.8l-85.333-85.333c-4.267-4.267-4.267-17.067 0-21.333l85.333-85.333c8.533-8.533 29.867-4.267 29.867 12.8v42.667c59.733 0 106.667-46.933 106.667-106.667s-46.933-106.667-106.667-106.667c-59.733 0-106.667 46.933-106.667 106.667 0 25.6-17.067 42.667-42.667 42.667s-42.667-17.067-42.667-42.667c0-106.667 85.333-192 192-192s192 85.333 192 192c0 102.4-85.333 187.733-192 187.733z" />
<glyph unicode="&#xe941;" glyph-name="plazoFijo" d="M938.667 746.667h-128v21.333c0 25.6-17.067 42.667-42.667 42.667s-42.667-17.067-42.667-42.667v-21.333h-426.667v21.333c0 25.6-17.067 42.667-42.667 42.667s-42.667-21.333-42.667-42.667v-21.333h-128c-21.333 0-42.667-21.333-42.667-42.667v-640c0-21.333 17.067-42.667 42.667-42.667h853.333c21.333 0 42.667 17.067 42.667 42.667v640c0 21.333-17.067 42.667-42.667 42.667zM896 106.667h-768v554.667h85.333v-21.333c0-25.6 17.067-42.667 42.667-42.667s42.667 17.067 42.667 42.667v21.333h430.933v-21.333c0-25.6 17.067-42.667 42.667-42.667s42.667 17.067 42.667 42.667v21.333h81.067v-554.667zM384 533.333h89.6v-341.333h-89.6v341.333zM550.4 533.333h89.6v-341.333h-89.6v341.333z" />
<glyph unicode="&#xe942;" glyph-name="inversion" d="M541.867 571.733c0 0 0 0 0 0v-25.6c25.6-8.533 42.667-21.333 55.467-46.933 8.533-12.8 4.267-34.133-12.8-42.667-12.8-8.533-34.133-4.267-42.667 12.8-4.267 12.8-17.067 17.067-25.6 21.333-12.8 0-21.333 0-34.133-8.533-8.533-8.533-12.8-17.067-12.8-29.867s4.267-21.333 12.8-29.867l81.067-64c34.133-25.6 46.933-51.2 46.933-81.067s-12.8-59.733-38.4-81.067c-12.8-8.533-25.6-17.067-38.4-21.333v-21.333c106.667 8.533 192 98.133 192 209.067 0 106.667-81.067 196.267-183.467 209.067zM473.6 174.933c-25.6 8.533-46.933 25.6-59.733 46.933-8.533 12.8-4.267 34.133 12.8 42.667 12.8 8.533 34.133 4.267 42.667-12.8 8.533-12.8 17.067-17.067 29.867-21.333 12.8 0 25.6 0 34.133 8.533s17.067 21.333 17.067 34.133c0 12.8-4.267 25.6-17.067 34.133l-81.067 64c-25.6 17.067-38.4 46.933-38.4 76.8s12.8 59.733 34.133 76.8c8.533 8.533 21.333 17.067 34.133 21.333v25.6c0 0 0 0 0 0-102.4-12.8-183.467-102.4-183.467-209.067s76.8-192 174.933-209.067v21.333zM896 704h-128v51.2c0 68.267-55.467 123.733-123.733 123.733h-273.067c-64-8.533-115.2-59.733-115.2-123.733v-51.2h-132.267c-46.933 0-85.333-38.4-85.333-85.333v-512c0-46.933 38.4-85.333 85.333-85.333h772.267c46.933 0 85.333 38.4 85.333 85.333v512c0 46.933-38.4 85.333-85.333 85.333zM341.333 755.2c0 21.333 17.067 38.4 34.133 38.4h268.8c25.6 0 38.4-21.333 38.4-38.4v-51.2h-341.333v51.2zM896 106.667h-772.267v512h772.267v-512z" />
<glyph unicode="&#xe943;" glyph-name="tasa_interes_preferencial" d="M627.2 686.933c-4.267 0-8.533 0-12.8 0v51.2c0 98.133-123.733 179.2-281.6 179.2-162.133 0-285.867-76.8-285.867-174.933v-294.4c0-89.6 98.133-157.867 234.667-174.933 29.867-166.4 174.933-290.133 349.867-290.133 196.267 0 354.133 157.867 354.133 354.133-4.267 192-162.133 349.867-358.4 349.867zM328.533 832c115.2 0 196.267-46.933 196.267-93.867s-85.333-93.867-196.267-93.867c-115.2 0-196.267 46.933-196.267 93.867s85.333 93.867 196.267 93.867zM273.067 358.4c-81.067 8.533-140.8 46.933-140.8 85.333v17.067c38.4-25.6 89.6-42.667 149.333-46.933-4.267-17.067-8.533-38.4-8.533-55.467zM311.467 494.933c-102.4 4.267-179.2 51.2-179.2 89.6v25.6c51.2-29.867 119.467-46.933 196.267-46.933 8.533 0 17.067 0 29.867 0-17.067-21.333-34.133-42.667-46.933-68.267zM627.2 64c-149.333 0-264.533 123.733-264.533 273.067s119.467 264.533 264.533 264.533c149.333 0 268.8-119.467 268.8-268.8s-119.467-268.8-268.8-268.8zM721.067 290.133c-42.667 0-72.533-34.133-72.533-72.533 0-42.667 34.133-72.533 72.533-72.533s72.533 34.133 72.533 72.533c0 38.4-29.867 72.533-72.533 72.533zM721.067 192c-17.067 0-25.6 12.8-25.6 25.6 0 17.067 12.8 25.6 25.6 25.6 17.067 0 25.6-12.8 25.6-25.6 0-17.067-8.533-25.6-25.6-25.6zM640 439.467c0 38.4-34.133 72.533-72.533 72.533-42.667 0-72.533-34.133-72.533-72.533 0-42.667 34.133-72.533 72.533-72.533 38.4-4.267 72.533 29.867 72.533 72.533zM541.867 439.467c0 17.067 12.8 25.6 25.6 25.6s25.6-12.8 25.6-25.6c0-17.067-12.8-25.6-25.6-25.6s-25.6 8.533-25.6 25.6zM733.867 512c-12.8 8.533-29.867 0-34.133-12.8l-153.6-320c-8.533-12.8 0-29.867 12.8-34.133 12.8-8.533 29.867 0 34.133 12.8l153.6 320c4.267 12.8 0 25.6-12.8 34.133zM887.467 806.4l-64 98.133-98.133-72.533-76.8 46.933v-162.133c187.733 0 264.533-115.2 264.533-115.2l68.267 251.733-93.867-46.933z" />
<glyph unicode="&#xe944;" glyph-name="telefonofijo" d="M849.067 337.067c-21.333 21.333-51.2 34.133-81.067 34.133s-59.733-12.8-81.067-34.133c-8.533-8.533-12.8-12.8-17.067-21.333-106.667 89.6-200.533 183.467-285.867 285.867 8.533 8.533 12.8 12.8 17.067 17.067 46.933 46.933 46.933 119.467 0 166.4-29.867 34.133-59.733 68.267-93.867 98.133-25.6 21.333-55.467 34.133-85.333 34.133-25.6 0-55.467-12.8-81.067-34.133-17.067-17.067-29.867-25.6-46.933-46.933-55.467-68.267-68.267-145.067-21.333-217.6 59.733-85.333 123.733-170.667 192-247.467 123.733-136.533 264.533-260.267 422.4-362.667 29.867-17.067 59.733-29.867 93.867-29.867 42.667 0 85.333 17.067 115.2 46.933 17.067 17.067 34.133 34.133 51.2 51.2 42.667 46.933 42.667 119.467 0 162.133-34.133 34.133-64 64-98.133 98.133zM887.467 136.533c-17.067-17.067-51.2-51.2-51.2-51.2-17.067-17.067-34.133-25.6-55.467-25.6-17.067 0-29.867 4.267-42.667 12.8-145.067 98.133-281.6 213.333-405.333 349.867-68.267 72.533-128 153.6-187.733 238.933-25.6 42.667-21.333 81.067 8.533 115.2 0 0 38.4 42.667 68.267 55.467 4.267 0 12.8 0 21.333-8.533 34.133-34.133 68.267-64 98.133-98.133 25.6-25.6-17.067-59.733-17.067-59.733-34.133-34.133-34.133-85.333-8.533-119.467 89.6-106.667 187.733-204.8 294.4-294.4 17.067-12.8 34.133-21.333 55.467-21.333 25.6 0 46.933 8.533 64 29.867 4.267 4.267 12.8 12.8 17.067 17.067 8.533 8.533 17.067 8.533 21.333 8.533s12.8 0 21.333-8.533c34.133-34.133 64-64 98.133-98.133 12.8-12.8 12.8-29.867 0-42.667zM652.8 789.333c102.4-8.533 183.467-85.333 187.733-192 0-12.8 8.533-21.333 21.333-21.333 0 0 0 0 0 0 12.8 0 21.333 12.8 21.333 21.333-8.533 128-102.4 221.867-230.4 234.667h-4.267c-12.8 0-17.067-8.533-21.333-21.333 0-12.8 12.8-21.333 25.6-21.333zM669.867 874.667h8.533c140.8-12.8 256-128 260.267-268.8 0-12.8 8.533-21.333 21.333-21.333 0 0 0 0 0 0 12.8 0 21.333 12.8 21.333 21.333-8.533 162.133-136.533 298.667-302.933 311.467h-8.533c-12.8 0-21.333-8.533-21.333-21.333s8.533-21.333 21.333-21.333zM640 699.733v0c59.733-4.267 106.667-51.2 110.933-110.933 0-12.8 8.533-21.333 21.333-21.333 0 0 0 0 0 0 12.8 0 21.333 12.8 21.333 21.333-4.267 81.067-64 145.067-145.067 153.6 0 0-4.267 0-4.267 0h-4.267c-12.8 0-21.333-8.533-21.333-21.333 0-8.533 8.533-17.067 21.333-21.333z" />
<glyph unicode="&#xe945;" glyph-name="compu" d="M947.2 277.333l-51.2 68.267v409.6c0 64-55.467 119.467-119.467 119.467h-529.067c-68.267 0-119.467-55.467-119.467-119.467v-405.333l-51.2-72.533c-21.333-21.333-34.133-51.2-34.133-85.333 0-64 51.2-119.467 115.2-119.467h708.267c64 0 115.2 51.2 115.2 119.467 0 34.133-12.8 64-34.133 85.333zM866.133 162.133h-708.267c-17.067 0-29.867 12.8-29.867 29.867 0 8.533 4.267 17.067 8.533 25.6 0 0 4.267 4.267 4.267 4.267l59.733 85.333c8.533 8.533 12.8 17.067 12.8 25.6v422.4c0 17.067 12.8 34.133 34.133 34.133h529.067c17.067 0 34.133-17.067 34.133-34.133v-418.133c0-8.533 4.267-17.067 8.533-25.6l59.733-85.333c0 0 4.267-4.267 4.267-4.267 8.533-4.267 8.533-17.067 8.533-25.6 4.267-21.333-8.533-34.133-25.6-34.133zM264.533 401.067h494.933c4.267 0 8.533 4.267 8.533 8.533v332.8c-4.267 4.267-4.267 4.267-8.533 4.267h-494.933c-4.267 0-8.533 0-8.533-4.267v-328.533c0-8.533 4.267-12.8 8.533-12.8zM742.4 281.6h-456.533c-17.067 0-51.2-38.4-59.733-55.467-4.267-17.067 12.8-34.133 29.867-34.133h507.733c17.067 0 34.133 12.8 29.867 29.867-4.267 21.333-38.4 59.733-51.2 59.733z" />
<glyph unicode="&#xe946;" glyph-name="casas_comerciales" d="M802.133 789.333h-128c-21.333 72.533-68.267 128-162.133 128s-140.8-55.467-162.133-128h-128c-29.867 0-51.2-21.333-51.2-51.2v-708.267c0-25.6 21.333-51.2 51.2-51.2h580.267c29.867 0 51.2 21.333 51.2 51.2v708.267c0 29.867-21.333 51.2-51.2 51.2zM512 874.667c59.733 0 98.133-25.6 115.2-85.333h-230.4c21.333 59.733 55.467 85.333 115.2 85.333zM768 89.6c0-12.8-12.8-25.6-25.6-25.6h-460.8c-12.8 0-25.6 12.8-25.6 25.6v588.8c0 12.8 12.8 25.6 25.6 25.6h55.467c0-12.8 0-29.867-4.267-42.667-17.067-8.533-29.867-29.867-29.867-51.2 0-29.867 25.6-51.2 51.2-51.2 29.867 0 51.2 25.6 51.2 51.2 0 21.333-12.8 38.4-29.867 46.933 0 17.067 0 29.867 4.267 42.667h268.8c0-12.8 4.267-29.867 4.267-42.667-17.067-8.533-29.867-25.6-29.867-46.933 0-29.867 25.6-51.2 51.2-51.2s51.2 21.333 51.2 51.2c0 21.333-12.8 42.667-34.133 46.933 0 12.8 0 29.867-4.267 42.667h55.467c17.067 4.267 25.6-8.533 25.6-21.333v-588.8z" />
<glyph unicode="&#xe947;" glyph-name="dolar" d="M968.533 789.333h-913.067c-8.533 0-12.8-4.267-12.8-12.8v-614.4c0-8.533 4.267-12.8 12.8-12.8h913.067c8.533 0 12.8 4.267 12.8 12.8v614.4c0 8.533-4.267 12.8-12.8 12.8zM145.067 234.667c-8.533 4.267-17.067 8.533-17.067 21.333v430.933c0 12.8 8.533 17.067 17.067 17.067h153.6c-64-59.733-102.4-140.8-102.4-234.667s38.4-174.933 102.4-234.667h-153.6zM512 196.267c-149.333 0-273.067 123.733-273.067 273.067s123.733 273.067 273.067 273.067c149.333 0 273.067-123.733 273.067-273.067s-119.467-273.067-273.067-273.067zM896 256c0-8.533-8.533-17.067-17.067-17.067h-153.6c64 59.733 102.4 140.8 102.4 234.667s-38.4 174.933-102.4 230.4h149.333c12.8 0 21.333-4.267 21.333-17.067v-430.933zM358.4 371.2c17.067 0 25.6 12.8 25.6 25.6v179.2c0 8.533 8.533 17.067 17.067 17.067s21.333-4.267 21.333-17.067v-174.933c0-34.133-29.867-64-64-64s-64 29.867-64 64v174.933c0 8.533 8.533 17.067 17.067 17.067s21.333-4.267 21.333-17.067v-174.933c0-17.067 12.8-29.867 25.6-29.867zM541.867 401.067c0 8.533 0 17.067-8.533 21.333l-64 64c-12.8 12.8-21.333 29.867-17.067 51.2 0 17.067 8.533 34.133 25.6 46.933s34.133 17.067 51.2 12.8c17.067-4.267 34.133-12.8 42.667-29.867 4.267-8.533 0-21.333-8.533-25.6s-21.333 0-25.6 8.533c-4.267 8.533-8.533 12.8-17.067 12.8s-17.067 0-21.333-4.267c-8.533-4.267-8.533-12.8-12.8-21.333 0-8.533 0-17.067 8.533-21.333l59.733-64c12.8-12.8 21.333-34.133 17.067-51.2 0-21.333-12.8-34.133-25.6-46.933-17.067-12.8-34.133-17.067-55.467-12.8-17.067 4.267-34.133 17.067-42.667 29.867-4.267 8.533-4.267 21.333 8.533 25.6s21.333 0 25.6-8.533c4.267-8.533 12.8-12.8 21.333-12.8s17.067 0 25.6 4.267c8.533 4.267 12.8 12.8 12.8 21.333zM738.133 529.067v-128c0-34.133-29.867-64-64-64h-46.933c-8.533 0-17.067 8.533-17.067 17.067v221.867c0 8.533 8.533 17.067 17.067 17.067h46.933c34.133 0 64-29.867 64-64zM669.867 558.933h-25.6v-183.467h25.6c17.067 0 25.6 12.8 25.6 25.6v128c4.267 17.067-8.533 29.867-25.6 29.867z" />
<glyph unicode="&#xe948;" glyph-name="dolares_premio" d="M968.533 789.333h-913.067c-8.533 0-12.8-4.267-12.8-12.8v-614.4c0-8.533 4.267-12.8 12.8-12.8h913.067c8.533 0 12.8 4.267 12.8 12.8v614.4c0 8.533-4.267 12.8-12.8 12.8zM145.067 234.667c-8.533 4.267-17.067 8.533-17.067 21.333v430.933c0 12.8 8.533 17.067 17.067 17.067h153.6c-64-59.733-102.4-140.8-102.4-234.667s38.4-174.933 102.4-234.667h-153.6zM512 234.667c-128 0-234.667 106.667-234.667 234.667 0 132.267 106.667 234.667 234.667 234.667 8.533 0 17.067 0 25.6 0 0 0 0 0 0 0s0 0 0 0c12.8 0 25.6-4.267 38.4-8.533 0 0 4.267 0 4.267 0 8.533-4.267 21.333-8.533 29.867-12.8 4.267-4.267 12.8-4.267 17.067-8.533 8.533-4.267 12.8-8.533 17.067-12.8 29.867-21.333 55.467-46.933 72.533-81.067 0 0 0-4.267 0-4.267 4.267-8.533 8.533-21.333 12.8-34.133 4.267-8.533 4.267-12.8 8.533-21.333 0-4.267 0-8.533 4.267-12.8 4.267-12.8 4.267-25.6 4.267-42.667 0-123.733-106.667-230.4-234.667-230.4zM896 256c0-8.533-8.533-17.067-17.067-17.067h-153.6c64 59.733 102.4 140.8 102.4 234.667s-38.4 174.933-102.4 230.4h149.333c12.8 0 21.333-4.267 21.333-17.067v-430.933zM567.467 550.4l119.467-17.067-89.6-81.067 21.333-119.467-106.667 55.467-106.667-55.467 21.333 119.467-85.333 81.067 119.467 17.067 51.2 110.933z" />
<glyph unicode="&#xe949;" glyph-name="restaurant" d="M512 917.333c-260.267 0-469.333-209.067-469.333-469.333s209.067-469.333 469.333-469.333 469.333 209.067 469.333 469.333-209.067 469.333-469.333 469.333zM708.267 119.467c0 115.2 0 200.533 0 320 0 64 0 136.533 0 200.533 0 25.6-12.8 46.933-38.4 59.733-38.4 17.067-98.133 0-98.133-64 0-119.467 0-243.2 0-362.667 0-4.267 0-8.533 0-12.8 12.8 0 25.6 0 38.4 0 0-38.4 0-81.067 0-119.467 0-34.133 0-38.4 0-64-29.867-8.533-64-12.8-98.133-12.8-17.067 0-29.867 0-46.933 4.267 0 119.467 0 217.6 0 337.067 0 4.267 0 8.533 0 12.8 4.267 0 8.533 0 12.8 4.267 29.867 4.267 46.933 25.6 46.933 55.467 0 68.267 0 140.8 0 209.067 0 12.8-4.267 21.333-17.067 21.333s-17.067-4.267-17.067-21.333c0-46.933 0-93.867 0-145.067 0-4.267 0-8.533 0-12.8-8.533 0-17.067 0-25.6 0 0 8.533 0 12.8 0 17.067 0 46.933 0 93.867 0 140.8 0 12.8-4.267 17.067-12.8 17.067-12.8 0-17.067-8.533-17.067-17.067 0-46.933 0-98.133 0-145.067 0-4.267 0-8.533 0-12.8-8.533 0-17.067 0-25.6 0 0 4.267 0 8.533 0 12.8 0 46.933 0 93.867 0 145.067-4.267 12.8-8.533 17.067-17.067 17.067-12.8 0-17.067-8.533-17.067-17.067 0-46.933 0-93.867 0-140.8 0-4.267 0-8.533 0-17.067-8.533 0-17.067 0-25.6 0 0 55.467 0 106.667 0 157.867 0 12.8-4.267 17.067-17.067 17.067s-17.067-8.533-17.067-17.067c0-72.533 0-140.8 0-213.333 0-25.6 17.067-46.933 42.667-51.2 4.267 0 8.533 0 17.067-4.267 0-4.267 0-12.8 0-17.067 0-98.133 0-192 0-290.133 0-8.533 0-17.067 0-21.333-145.067 55.467-247.467 196.267-247.467 358.4 0 213.333 170.667 384 384 384s384-170.667 384-384c0-140.8-76.8-264.533-187.733-328.533z" />
<glyph unicode="&#xe94a;" glyph-name="restaurant2" d="M486.4 354.133c-17.067 0-29.867 0-46.933 0 0 4.267 0 8.533 0 12.8 0 140.8 0 281.6 0 422.4 0 72.533 68.267 93.867 115.2 72.533 29.867-12.8 42.667-38.4 42.667-68.267 0-76.8 0-157.867 0-234.667 0-162.133 0-320 0-482.133 0-42.667-29.867-68.267-72.533-55.467-25.6 8.533-38.4 21.333-38.4 51.2 0 46.933 0 93.867 0 140.8s0 93.867 0 140.8zM768 307.2c0 76.8 0 153.6 0 230.4 0 8.533 0 17.067-8.533 21.333-29.867 25.6-42.667 59.733-46.933 98.133-8.533 46.933-8.533 98.133 12.8 145.067 8.533 17.067 17.067 34.133 29.867 46.933 38.4 38.4 89.6 38.4 128 0 29.867-29.867 42.667-64 46.933-106.667 8.533-46.933 0-93.867-17.067-136.533-8.533-17.067-17.067-29.867-29.867-46.933-8.533-8.533-12.8-17.067-12.8-29.867 0-149.333 0-302.933 0-452.267 0-34.133-21.333-55.467-59.733-51.2-29.867 4.267-46.933 21.333-46.933 51.2 4.267 76.8 4.267 153.6 4.267 230.4v0zM128 665.6c12.8 0 21.333 0 29.867 0 0 8.533 0 12.8 0 17.067 0 55.467 0 110.933 0 162.133 0 8.533 4.267 25.6 17.067 25.6s17.067-4.267 17.067-21.333c0-55.467 0-110.933 0-166.4 0-4.267 0-12.8 0-17.067 12.8 0 21.333 0 29.867 0 0 4.267 0 12.8 0 17.067 0 55.467 0 110.933 0 166.4 0 12.8 4.267 21.333 17.067 21.333 8.533 0 17.067-4.267 17.067-21.333 0-55.467 0-110.933 0-162.133 0-4.267 0-12.8 0-21.333 8.533 0 21.333 0 34.133 0 0 4.267 0 8.533 0 17.067 0 55.467 0 110.933 0 166.4 0 17.067 4.267 21.333 17.067 21.333s17.067-8.533 17.067-21.333c0-81.067 0-162.133 0-243.2 0-34.133-17.067-59.733-55.467-64-4.267 0-8.533 0-12.8-4.267 0-4.267 0-12.8 0-17.067 0-145.067 0-294.4 0-439.467 0-38.4-17.067-55.467-51.2-55.467-29.867 0-51.2 17.067-51.2 51.2s0 72.533 0 106.667c0 110.933 0 226.133 0 337.067 0 4.267 0 12.8 0 17.067-4.267 0-12.8 4.267-17.067 4.267-25.6 4.267-46.933 29.867-46.933 59.733 0 81.067 0 166.4 0 247.467 0 12.8 4.267 25.6 17.067 25.6s21.333-8.533 21.333-25.6c0-59.733 0-119.467 0-183.467z" />
<glyph unicode="&#xe94b;" glyph-name="viajes" d="M849.067 622.933h-567.467l-21.333 55.467c-25.6 72.533-93.867 72.533-123.733 72.533h-132.267l34.133-110.933 51.2-170.667c4.267-21.333 21.333-51.2 38.4-72.533 42.667-46.933 98.133-72.533 162.133-72.533h93.867l-85.333-345.6h25.6c12.8 0 25.6 4.267 34.133 17.067l328.533 328.533h162.133c34.133 0 68.267 17.067 93.867 42.667 29.867 29.867 42.667 72.533 42.667 115.2-4.267 76.8-64 140.8-136.533 140.8zM849.067 409.6h-558.933c-38.4 0-72.533 17.067-98.133 42.667-12.8 12.8-17.067 25.6-21.333 42.667l-51.2 170.667h21.333c25.6 0 34.133 0 42.667-17.067l38.4-115.2h631.467c29.867 0 51.2-25.6 55.467-59.733-4.267-34.133-29.867-64-59.733-64zM669.867 648.533l-247.467 251.733c-8.533 12.8-21.333 17.067-34.133 17.067h-51.2l81.067-268.8h251.733z" />
<glyph unicode="&#xe94c;" glyph-name="PAT" d="M512 827.733c213.333 0 384-170.667 384-384s-170.667-384-384-384c-213.333 0-384 170.667-384 384s170.667 384 384 384zM512 913.067v0c-260.267 0-469.333-209.067-469.333-465.067v0c0-260.267 209.067-469.333 469.333-469.333v0c260.267 0 469.333 209.067 469.333 469.333v0c0 256-213.333 465.067-469.333 465.067v0zM260.267 622.933h59.733c46.933 0 85.333-38.4 85.333-85.333v-29.867c0-46.933-38.4-85.333-85.333-85.333h-34.133v-119.467c0-12.8-12.8-25.6-25.6-25.6s-25.6 12.8-25.6 25.6v298.667c0 12.8 12.8 21.333 25.6 21.333zM320 576h-34.133v-102.4h38.4c21.333 0 38.4 17.067 38.4 38.4v25.6c-4.267 21.333-21.333 38.4-42.667 38.4zM593.067 281.6c-12.8-4.267-25.6 4.267-29.867 17.067 0 4.267-4.267 8.533-4.267 12.8-4.267 8.533-8.533 21.333-12.8 38.4h-85.333c-4.267-17.067-8.533-29.867-12.8-38.4 0-4.267-4.267-12.8-4.267-12.8-4.267-12.8-17.067-21.333-29.867-17.067s-21.333 17.067-17.067 29.867l81.067 298.667c4.267 12.8 12.8 17.067 25.6 17.067s21.333-8.533 25.6-17.067l81.067-298.667c4.267-12.8-4.267-25.6-17.067-29.867zM503.467 507.733c-8.533-34.133-21.333-72.533-29.867-106.667h59.733c-8.533 34.133-21.333 72.533-29.867 106.667zM776.533 601.6c0-17.067-8.533-25.6-25.6-25.6h-42.667v-268.8c0-12.8-12.8-25.6-25.6-25.6s-25.6 12.8-25.6 25.6v268.8h-42.667c-12.8 0-25.6 12.8-25.6 25.6s12.8 25.6 25.6 25.6h132.267c21.333-4.267 29.867-12.8 29.867-25.6z" />
</font>
</defs>
</svg>
